<svg width="32" height="32" viewBox="0 0 32 32" fill="none" xmlns="http://www.w3.org/2000/svg">
<path d="M29.3711 27.2377C30.683 27.2377 32.0958 25.8249 31.9949 24.4121V3.92651C31.9949 3.1192 31.7931 2.51371 31.3894 2.00914C30.4812 1 29.2702 1 27.9583 1C23.3163 1 19.2797 2.51371 16.0505 5.33931C13.1239 2.71554 8.58281 1.10091 4.14259 1.10091C2.93162 1.10091 1.51882 1 0.711506 2.00914C0.30785 2.61463 0.00510716 3.22011 0.00510716 3.92651L0.00510716 24.4121C-0.095807 25.724 1.31699 27.2377 2.62887 27.2377C4.84899 27.3386 7.0691 27.7422 9.79378 28.4486C11.913 29.155 13.4267 29.8614 14.7386 30.6688C15.2431 31.0724 16.8578 31.1733 17.3623 30.6688C20.6925 28.6505 25.1327 27.3386 29.3711 27.2377ZM17.3623 28.3477V13.0088C17.2614 12.706 16.9587 11.6969 16.0505 11.6969C15.445 11.6969 14.9404 12.3024 14.9404 12.807V28.2468C11.3075 26.2285 6.86727 25.1185 2.8307 25.0176C2.52796 25.0176 2.32613 24.7148 2.32613 24.513L2.32613 3.92651C2.32613 3.62377 2.62887 3.42194 2.8307 3.42194C5.6563 3.1192 8.68372 3.62377 11.1057 4.73382C12.6194 5.23839 13.9313 6.24754 15.3441 7.66033C15.7477 8.06399 16.555 8.06399 16.9587 7.66033C19.8852 4.63291 24.9309 2.91737 29.472 3.42194C29.7748 3.42194 29.9766 3.72468 29.9766 3.92651V24.4121C29.9766 24.7148 29.6739 24.9167 29.472 24.9167C25.5364 25.0176 20.8943 26.3295 17.3623 28.3477Z" fill="#3744C4"/>
</svg>
