<svg width="32" height="32" viewBox="0 0 32 32" fill="none" xmlns="http://www.w3.org/2000/svg">
<path d="M8.17113 0.128403C7.56603 -0.274999 6.55752 0.330104 6.65837 1.13691V3.35562C3.22945 3.05307 -0.0986152 5.87689 0.00223534 9.40666L0.00223534 26.5513C0.00223534 29.4759 2.62435 32.098 5.54902 31.9972H26.4251C29.3498 32.098 31.9719 29.4759 31.9719 26.5513V9.40666C32.0727 5.87689 28.8455 3.05307 25.3157 3.35562V1.13691C25.3157 0.330104 24.4081 -0.174149 23.7021 0.229253C23.3996 0.330104 23.1979 0.733506 23.1979 1.13691V3.35562H17.046V1.13691C17.046 0.330104 16.1383 -0.174149 15.4324 0.229253C15.1298 0.430955 14.9281 0.733506 14.9281 1.13691V3.35562H8.77623V1.13691C8.77623 0.733506 8.57453 0.330104 8.17113 0.128403ZM14.9281 5.47348V7.6922C14.9281 8.499 15.8358 9.00325 16.5417 8.59985C16.8443 8.39815 17.046 8.0956 17.046 7.6922V5.47348H23.1979V7.6922C23.1979 8.499 24.1055 9.00325 24.8115 8.59985C25.114 8.39815 25.3157 8.0956 25.3157 7.6922V5.47348C27.6353 5.17093 29.854 6.98624 29.854 9.40666V25.9461C29.854 28.064 28.0387 29.8793 25.9208 29.8793H6.05327C3.93541 29.8793 2.1201 28.064 2.1201 25.9461L2.1201 13.7432H27.5344C28.3412 13.7432 28.8455 12.8356 28.4421 12.1296C28.2404 11.8271 27.9378 11.6254 27.5344 11.6254H2.1201V9.40666C2.1201 6.98624 4.33881 5.17093 6.65837 5.47348V7.6922C6.65837 8.499 7.56603 9.00325 8.27198 8.59985C8.57453 8.39815 8.77623 8.0956 8.77623 7.6922V5.47348H14.9281Z" fill="#3744C4"/>
<path d="M15.4293 18.1807C13.8157 18.1807 12.6055 19.4917 12.6055 21.0045C12.6055 22.6181 13.9165 23.8283 15.4293 23.8283C17.0429 23.8283 18.2531 22.5172 18.2531 21.0045C18.2531 19.4917 17.0429 18.1807 15.4293 18.1807ZM15.4293 22.2147C14.8242 22.2147 14.2191 21.7104 14.2191 21.0045C14.2191 20.3994 14.7233 19.7943 15.4293 19.7943C16.0344 19.7943 16.6395 20.2985 16.6395 21.0045C16.6395 21.7104 16.1352 22.2147 15.4293 22.2147Z" fill="#3744C4"/>
<path d="M23.4996 18.1807C21.886 18.1807 20.6758 19.4917 20.6758 21.0045C20.6758 22.6181 21.9868 23.8283 23.4996 23.8283C25.0124 23.8283 26.3234 22.5172 26.3234 21.0045C26.3234 19.4917 25.1132 18.1807 23.4996 18.1807ZM23.4996 22.2147C22.8945 22.2147 22.2894 21.7104 22.2894 21.0045C22.2894 20.3994 22.7936 19.7943 23.4996 19.7943C24.2056 19.7943 24.7098 20.2985 24.7098 21.0045C24.7098 21.7104 24.2056 22.2147 23.4996 22.2147Z" fill="#3744C4"/>
<path d="M7.86678 18.1807C6.35403 18.1807 5.04297 19.4917 5.04297 21.0045C5.04297 22.6181 6.35403 23.8283 7.86678 23.8283C9.37954 23.8283 10.6906 22.5172 10.6906 21.0045C10.7915 19.4917 9.48039 18.1807 7.86678 18.1807ZM7.86678 22.2147C7.26168 22.2147 6.65658 21.7104 6.65658 21.0045C6.65658 20.3994 7.16083 19.7943 7.86678 19.7943C8.47189 19.7943 9.07699 20.2985 9.07699 21.0045C9.07699 21.7104 8.57274 22.2147 7.86678 22.2147Z" fill="#3744C4"/>
</svg>
