<svg xmlns="http://www.w3.org/2000/svg" width="22" height="24" fill="none"><path fill="#3744C4" d="M21.2 2.3c-.6-1-1.4-1.5-2.3-1.6-.6 0-1.2.2-1.9.6V.7c0-.2-.1-.4-.2-.5-.1-.1-.2-.2-.4-.2H5.7c-.2 0-.4.1-.5.2-.2.2-.3.3-.2.5v.6C4.4.9 3.8.7 3.2.7c-.9.1-1.7.6-2.3 1.6-.4.6-.5 1.2-.3 1.8C.9 5.5 2.5 6.4 4 7.3c1.1.6 2.3 1.4 2.5 2 .1.3.2.9-.3 1-.4.1-.9 0-1.1-.6-.1-.2-.2-.4-.4-.4-.2-.1-.4-.1-.5 0-.2 0-.3.2-.4.3-.1.2-.1.4 0 .5.4.9 1.2 1.6 2.2 1.6.2 0 .5 0 .7-.1.5-.2.9-.5 1.1-1 0 .1.1.1.1.2 1.7 2.1.2 4-.4 4.7H6.1c-.4 0-.7.3-.7.7v1.5h-.5c-.4 0-.7.3-.7.7v5c0 .3.3.6.7.6h12.3c.4 0 .7-.3.7-.7v-5c0-.4-.3-.7-.7-.7h-.5v-1.5c0-.4-.3-.7-.7-.7h-1.5c-.6-.7-2.1-2.6-.4-4.7l.2-.2c.2.5.6.9 1.1 1 .2.1.4.1.7.1 1 0 1.8-.6 2.2-1.6.1-.4 0-.8-.4-.9-.2-.1-.4-.1-.5 0-.2.1-.3.2-.4.4-.2.6-.7.7-1.1.6-.5-.2-.4-.8-.3-1 .2-.6 1.4-1.3 2.5-2 1.5-.9 3.1-1.8 3.4-3.2.1-.4 0-1-.3-1.6ZM5.6 22.6V19h10.9v3.6H5.6Zm1.2-5v-.8h8.4v.8H6.8ZM20.1 3.8c-.2.8-1.6 1.6-2.8 2.3-.5.3-.9.5-1.3.8.3-1 .6-2.2.8-3.4l.1-.1c.3-.4 1.2-1.2 1.9-1.2.4 0 .8.3 1.1.9.2.2.3.5.2.7Zm-7.4 11.7H9.3c.6-1 1.6-3.3-.3-5.6-1.9-2.3-2.4-6.8-2.6-8.5h9.2c-.2 1.7-.7 6.2-2.6 8.5-1.9 2.3-.9 4.5-.3 5.6ZM1.9 3.8c-.1-.2 0-.5.2-.7.4-.6.7-.9 1.1-.9.7 0 1.6.8 2 1.3l.1.1c.2 1.2.4 2.4.8 3.4-.5-.4-.9-.7-1.4-.9-1.2-.7-2.6-1.5-2.8-2.3Z"/><path fill="#3744C4" d="M13.6993 1.8008c-.4 0-.7.3-.7.7 0 0-.1 2.7-1.1 5.1-.1.4 0 .8.4.9.1 0 .2.1.3.1.3 0 .5-.2.6-.4 1.1-2.6 1.2-5.3 1.2-5.6 0-.5-.3-.8-.7-.8Z"/></svg>