<svg width="136" height="70" viewBox="0 0 136 70" fill="none" xmlns="http://www.w3.org/2000/svg">
<g clip-path="url(#clip0_4524_2114)">
<path d="M20.8865 51V43H9.72921V38.6115H19.3245V30.6114H9.72921V27.0457H19.3245L20.8865 22.9771V19H0V51H20.8865Z" fill="#006EFF"/>
<path d="M35.407 51H43.574L45.984 35.64H46.7874V51H56.2934V47.0229L53.1247 19H42.1906L39.8252 31.6171H39.1558L36.7903 19H25.9008L22.6875 47.0229V51H32.2382V35.64H32.9968L35.407 51Z" fill="#006EFF"/>
<path d="M72.6253 22.2L68.0286 33.2171H67.27L68.698 22.9771V19H58.9688V51H68.698V47.8L73.2947 36.7829H74.0981L72.6253 47.0229V51H82.3546V19H72.6253V22.2Z" fill="#006EFF"/>
<path d="M95.6763 27.0457H99.559V33.0344H95.6763V27.0457ZM105.406 41.0344C107.726 41.0344 109.333 39.3429 109.333 37.0115V22.9771C109.333 20.6457 107.726 19 105.406 19H85.9023V51H95.6763V41.0344H105.406Z" fill="#006EFF"/>
</g>
<defs>
<clipPath id="clip0_4524_2114">
<rect width="109.333" height="32" fill="white" transform="translate(0 19)"/>
</clipPath>
</defs>
</svg>
