<svg width="32" height="32" viewBox="0 0 32 32" fill="none" xmlns="http://www.w3.org/2000/svg">
<path d="M24.2479 7.2107C24.8996 7.2107 25.5366 7.01747 26.0784 6.65543C26.6203 6.29339 27.0426 5.77881 27.2919 5.17677C27.5413 4.57472 27.6066 3.91224 27.4794 3.27311C27.3523 2.63399 27.0385 2.04691 26.5777 1.58612C26.1169 1.12533 25.5298 0.811535 24.8907 0.684404C24.2516 0.557273 23.5891 0.622521 22.9871 0.871897C22.385 1.12127 21.8704 1.54358 21.5084 2.0854C21.1464 2.62723 20.9531 3.26425 20.9531 3.9159C20.9531 4.78974 21.3003 5.62778 21.9182 6.24568C22.536 6.86357 23.3741 7.2107 24.2479 7.2107ZM24.2479 1.68642C24.6904 1.68533 25.1233 1.81562 25.4917 2.06079C25.8601 2.30595 26.1474 2.65495 26.3172 3.06356C26.487 3.47217 26.5318 3.92201 26.4457 4.35606C26.3596 4.79011 26.1467 5.18885 25.8338 5.50175C25.5209 5.81465 25.1221 6.02762 24.6881 6.11368C24.254 6.19974 23.8042 6.15502 23.3956 5.98518C22.987 5.81534 22.638 5.52803 22.3928 5.15965C22.1477 4.79127 22.0174 4.3584 22.0184 3.9159C22.0184 3.3241 22.2532 2.75645 22.6711 2.33747C23.0891 1.91849 23.6561 1.68238 24.2479 1.68092V1.68642Z" fill="#3744C4" stroke="#3744C4" stroke-width="0.823701"/>
<path d="M29.0784 14.4321H25.2893L23.3784 9.87432C23.3365 9.42193 23.1765 8.98849 22.9144 8.61743C22.6522 8.24637 22.2971 7.95074 21.8847 7.76016L20.1549 6.79917C20.1108 6.77286 20.0625 6.75429 20.0122 6.74426L14.3616 5.5142H14.3067C13.8454 5.40221 13.3585 5.47513 12.9503 5.71738C12.9004 5.73229 12.8539 5.75651 12.813 5.78877L8.03007 9.22085L7.99712 9.24831C7.73408 9.41948 7.51829 9.65402 7.36956 9.93036C7.22084 10.2067 7.14395 10.516 7.14596 10.8298C7.14486 11.187 7.24418 11.5373 7.43259 11.8408C7.621 12.1442 7.89091 12.3886 8.21152 12.5461C8.53214 12.7035 8.89056 12.7677 9.24588 12.7312C9.60121 12.6948 9.93913 12.5592 10.2211 12.3399L10.2541 12.3125L14.1804 9.49542L16.322 10.1763L13.2688 15.1515V15.1899C12.9165 15.7169 12.7256 16.3353 12.7197 16.9691C12.7197 16.9966 12.6702 17.0131 12.6538 17.035L10.3584 20.6538H5.25694C4.65836 20.6538 4.0843 20.8916 3.66104 21.3149C3.23778 21.7381 3 22.3122 3 22.9108C3 23.5093 3.23778 24.0834 3.66104 24.5067C4.0843 24.9299 4.65836 25.1677 5.25694 25.1677H11.0833C11.6092 25.1673 12.1275 25.0409 12.5946 24.7992C13.0618 24.5575 13.4643 24.2075 13.7685 23.7784L15.8552 20.8295L19.3422 22.9822L18.244 28.6877C18.2133 28.832 18.1986 28.9794 18.2 29.127C18.2062 29.6849 18.4189 30.2207 18.7969 30.631C19.1749 31.0414 19.6915 31.2972 20.247 31.349C20.8025 31.4009 21.3576 31.2452 21.805 30.9119C22.2525 30.5786 22.5606 30.0914 22.67 29.5443L24.0703 22.1749C24.0733 22.1384 24.0733 22.1016 24.0703 22.0651C24.0703 22.0047 24.0703 21.9388 24.0703 21.8784C24.0712 21.3736 23.874 20.8885 23.5211 20.5275L23.4497 20.4506L20.0232 17.4139L21.3905 14.6957L22.4888 17.1394C22.4993 17.1661 22.5122 17.1918 22.5272 17.2162C22.689 17.5272 22.9324 17.7881 23.2314 17.971C23.5304 18.1538 23.8736 18.2517 24.224 18.2541H29.0784C29.5881 18.2541 30.077 18.0516 30.4374 17.6912C30.7978 17.3307 31.0003 16.8419 31.0003 16.3321C31.0003 15.8224 30.7978 15.3335 30.4374 14.9731C30.077 14.6127 29.5881 14.4102 29.0784 14.4102V14.4321ZM12.9009 23.1359C12.6945 23.4258 12.422 23.6623 12.1058 23.8256C11.7897 23.9889 11.4391 24.0744 11.0833 24.0749H5.25694C4.95417 24.0544 4.6705 23.9196 4.46331 23.6979C4.25611 23.4762 4.14086 23.184 4.14086 22.8806C4.14086 22.5771 4.25611 22.285 4.46331 22.0632C4.6705 21.8415 4.95417 21.7067 5.25694 21.6862H10.6055C10.6941 21.6839 10.7808 21.6603 10.8583 21.6173C10.9357 21.5742 11.0016 21.5131 11.0503 21.4391L12.9833 18.3969C13.2791 19.028 13.7674 19.549 14.3781 19.885L14.4165 19.9125L14.9656 20.242L12.9009 23.1359ZM19.0182 17.9027L22.6919 21.1645L22.7469 21.2194C22.8397 21.2996 22.9139 21.3992 22.9642 21.5112C23.0145 21.6231 23.0397 21.7447 23.0379 21.8674C23.0404 21.9058 23.0404 21.9443 23.0379 21.9827V22.0376L21.6211 29.3356C21.5716 29.6326 21.4115 29.8998 21.173 30.0835C20.9346 30.2672 20.6354 30.3539 20.3356 30.3261C20.0359 30.2983 19.7578 30.158 19.5572 29.9335C19.3566 29.7091 19.2484 29.417 19.2544 29.116C19.2484 29.0374 19.2484 28.9584 19.2544 28.8799L20.457 22.8119C20.4743 22.7068 20.4607 22.5989 20.4178 22.5014C20.3749 22.4039 20.3045 22.321 20.2153 22.2628L15.037 19.0668L14.9382 19.0009C14.5743 18.8176 14.2685 18.5366 14.0552 18.1894C13.8418 17.8422 13.7293 17.4425 13.7301 17.035C13.7322 16.5678 13.88 16.1129 14.1529 15.7336C14.1764 15.7038 14.195 15.6704 14.2078 15.6347L17.5795 10.1434C17.6208 10.0737 17.6462 9.99564 17.6538 9.91494C17.6614 9.83424 17.651 9.75286 17.6234 9.67664C17.5941 9.60239 17.5489 9.53543 17.4911 9.48043C17.4332 9.42542 17.3641 9.38369 17.2885 9.35814L14.2518 8.39166C14.1723 8.36802 14.0886 8.36265 14.0068 8.37596C13.925 8.38928 13.8473 8.42093 13.7795 8.46854L9.69394 11.4009C9.65954 11.4178 9.62803 11.44 9.60059 11.4668C9.44783 11.5982 9.25294 11.6703 9.05146 11.67C8.82807 11.6657 8.61521 11.5743 8.45825 11.4153C8.30129 11.2563 8.21267 11.0423 8.21128 10.8188C8.21078 10.6733 8.24857 10.5303 8.32087 10.404C8.39316 10.2777 8.4974 10.1727 8.62313 10.0995L8.7055 10.0336L13.3567 6.69484L13.4445 6.65091C13.5772 6.56049 13.7343 6.51261 13.8948 6.51362C13.9673 6.51544 14.0393 6.52651 14.109 6.54657H14.1913L19.6827 7.74918L21.2971 8.64976L21.3905 8.70467C21.6656 8.82423 21.8999 9.0214 22.0648 9.27205C22.2296 9.5227 22.3178 9.81596 22.3185 10.1159C22.318 10.3802 22.248 10.6397 22.1154 10.8683C22.0934 10.9021 22.0767 10.9392 22.0659 10.9781L18.881 17.2821C18.8315 17.3897 18.8182 17.5104 18.8429 17.6262C18.8677 17.742 18.9292 17.8466 19.0182 17.9246V17.9027ZM29.0784 17.1943H24.246C24.0843 17.1929 23.9262 17.1457 23.7902 17.0583C23.6541 16.9708 23.5456 16.8466 23.4772 16.7001C23.4792 16.6818 23.4792 16.6634 23.4772 16.6451L22.0385 13.4821L22.9555 11.6041L24.4492 15.157C24.4917 15.2517 24.5602 15.3323 24.6467 15.3897C24.7332 15.447 24.8341 15.4787 24.9379 15.481H29.0784C29.3041 15.481 29.5206 15.5707 29.6802 15.7303C29.8399 15.8899 29.9295 16.1064 29.9295 16.3321C29.9295 16.5579 29.8399 16.7744 29.6802 16.934C29.5206 17.0936 29.3041 17.1833 29.0784 17.1833V17.1943Z" fill="#3744C4" stroke="#3744C4" stroke-width="0.823701"/>
<path fill-rule="evenodd" clip-rule="evenodd" d="M2 15C2 14.4477 2.44772 14 3 14H8C8.55228 14 9 14.4477 9 15C9 15.5523 8.55228 16 8 16H3C2.44772 16 2 15.5523 2 15Z" fill="#3744C4"/>
<path fill-rule="evenodd" clip-rule="evenodd" d="M0 18C0 17.4477 0.447715 17 1 17H6C6.55228 17 7 17.4477 7 18C7 18.5523 6.55228 19 6 19H1C0.447715 19 0 18.5523 0 18Z" fill="#3744C4"/>
<path fill-rule="evenodd" clip-rule="evenodd" d="M5 28C5 27.4477 5.44772 27 6 27H11C11.5523 27 12 27.4477 12 28C12 28.5523 11.5523 29 11 29H6C5.44772 29 5 28.5523 5 28Z" fill="#3744C4"/>
</svg>
