<svg width="32" height="32" viewBox="0 0 32 32" fill="none" xmlns="http://www.w3.org/2000/svg">
<g clip-path="url(#clip0_6467_4754)">
<path fill-rule="evenodd" clip-rule="evenodd" d="M1 2C1.55228 2 2 2.44772 2 3L2 31C2 31.5523 1.55228 32 1 32C0.447715 32 0 31.5523 0 31L0 3C0 2.44772 0.447715 2 1 2Z" fill="#3744C4"/>
<path fill-rule="evenodd" clip-rule="evenodd" d="M2 3L6 3L6 5L2 5L2 3Z" fill="#3744C4"/>
<path fill-rule="evenodd" clip-rule="evenodd" d="M9 3L14 3L14 5L9 5L9 3Z" fill="#3744C4"/>
<path fill-rule="evenodd" clip-rule="evenodd" d="M19 3L23 3L23 5L19 5L19 3Z" fill="#3744C4"/>
<path fill-rule="evenodd" clip-rule="evenodd" d="M26 3L30 3L30 5L26 5L26 3Z" fill="#3744C4"/>
<path fill-rule="evenodd" clip-rule="evenodd" d="M31 2C31.5523 2 32 2.44772 32 3V31C32 31.5523 31.5523 32 31 32C30.4477 32 30 31.5523 30 31V3C30 2.44772 30.4477 2 31 2Z" fill="#3744C4"/>
<path d="M16 29.4187C16 30.2911 15.292 30.9992 14.4196 30.9992C13.5472 30.9992 12.8392 30.2911 12.8392 29.4187L12.2552 12.2113L7.69729 9.94818L6.04103 2.94383C5.84506 2.09674 6.36975 1.24332 7.21685 1.04103C8.07027 0.84506 8.91736 1.36975 9.11966 2.21685L10.4472 7.77987L14.9292 10.0051H17.205L21.687 7.77987L23.0019 2.22317C23.2042 1.36975 24.0513 0.84506 24.9047 1.04735H24.8921C25.7455 1.24964 26.2702 2.10306 26.0679 2.95016L24.4116 9.9545L19.8538 12.2176L19.1608 29.4187C19.1608 30.2911 18.4528 30.9992 17.5804 30.9992C16.708 30.9992 16 30.2911 16 29.4187ZM16 29.4187V20.3978" stroke="#3744C4" stroke-width="2"/>
<path d="M16.0615 7.16989C17.7653 7.16989 19.1465 5.78872 19.1465 4.08495C19.1465 2.38118 17.7653 1 16.0615 1C14.3577 1 12.9766 2.38118 12.9766 4.08495C12.9766 5.78872 14.3577 7.16989 16.0615 7.16989Z" stroke="#3744C4" stroke-width="2"/>
</g>
<defs>
<clipPath id="clip0_6467_4754">
<rect width="32" height="32" fill="white"/>
</clipPath>
</defs>
</svg>
