<svg width="32" height="32" viewBox="0 0 32 32" fill="none" xmlns="http://www.w3.org/2000/svg">
<path fill-rule="evenodd" clip-rule="evenodd" d="M13.4673 23.7154C10.1416 23.9793 7.36055 24.6707 5.60514 25.5526C4.72344 25.9955 4.27788 26.3982 4.09091 26.6544C4.03641 26.7291 4.01353 26.7768 4.00447 26.7998C4.03349 26.872 4.17952 27.1445 4.73699 27.5372C5.31907 27.9474 6.19854 28.3789 7.39695 28.7674C9.79254 29.544 12.9997 30 16.3952 30.0005C19.7906 30.0009 22.9989 29.5457 25.3963 28.7696C26.5957 28.3813 27.4764 27.9499 28.0598 27.5396C28.6196 27.1458 28.7664 26.8724 28.7956 26.7998C28.7866 26.777 28.7639 26.7297 28.7101 26.6558C28.5243 26.4004 28.0803 25.998 27.1998 25.555C25.4467 24.673 22.6674 23.9809 19.3422 23.7162L19.5009 21.7225C22.9672 21.9985 26.029 22.7271 28.0987 23.7684C29.1335 24.2891 29.8839 24.8696 30.3274 25.4792C30.7735 26.0923 30.9065 26.7311 30.715 27.3646C30.5227 28.0011 30.0083 28.6142 29.2104 29.1754C28.4132 29.7362 27.3338 30.2446 26.0123 30.6723C23.3694 31.528 19.9445 32.0009 16.3949 32.0005C12.8454 32 9.42143 31.5262 6.78017 30.6699C5.45955 30.2418 4.38112 29.7331 3.58503 29.1722C2.7882 28.6107 2.27502 27.9975 2.08391 27.3609C1.89373 26.7275 2.02793 26.0887 2.47525 25.4756C2.91995 24.8661 3.67145 24.2858 4.70731 23.7654C6.77905 22.7246 9.8423 21.9968 13.3091 21.7217L13.4673 23.7154Z" fill="#3744C4"/>
<path d="M22.3749 7.76054C22.1974 7.22797 21.6648 6.69541 21.0435 6.60664L18.9132 6.34036L18.0256 4.38761C17.6705 3.85504 17.138 3.5 16.5166 3.5C15.8066 3.58876 15.3628 3.85504 15.0077 4.47637L14.1201 6.42912L11.9898 6.6954C11.3685 6.78417 10.8359 7.22797 10.5696 7.8493C10.3921 8.38187 10.5696 9.09196 10.9247 9.62453L12.4336 11.0447L12.0786 13.0862C11.9898 13.7963 12.2561 14.4176 12.6999 14.6839C13.1437 15.1277 13.9426 15.039 14.5639 14.8614L16.4279 13.8851L18.3806 14.8614C19.7121 15.4828 20.9547 14.3289 20.7772 13.0862L20.4221 10.9559L22.0198 9.447C22.4636 9.09196 22.6412 8.38187 22.3749 7.76054ZM18.9132 10.1571C18.6469 10.3346 18.6469 10.6009 18.6469 10.9559L19.0907 13.3525L16.9605 12.2874C16.6942 12.1986 16.4279 12.1986 16.2504 12.2874L14.2089 13.3525L14.2976 10.9559C14.3864 10.6897 14.2976 10.4234 14.0313 10.1571L12.3449 8.38187L14.7414 8.11558C14.9189 8.11558 15.274 7.93806 15.4515 7.67178L16.5166 5.54151L17.493 7.67178C17.6705 7.93806 17.8481 8.11558 18.2031 8.11558L20.5997 8.38187L18.9132 10.1571Z" fill="#3744C4"/>
<path fill-rule="evenodd" clip-rule="evenodd" d="M19.7359 20.6906C22.1193 17.1156 24.2 12.9533 24.2 9.6C24.2 5.40264 20.7974 2 16.6 2C12.4026 2 9 5.40264 9 9.6C9 12.9533 11.0807 17.1156 13.4641 20.6906C14.5977 22.3911 15.735 23.8647 16.6 24.9249C17.465 23.8647 18.6023 22.3911 19.7359 20.6906ZM17.9162 26.4735C20.546 23.2924 26.2 15.7395 26.2 9.6C26.2 4.29807 21.9019 0 16.6 0C11.2981 0 7 4.29807 7 9.6C7 15.7395 12.654 23.2924 15.2838 26.4735C16.0808 27.4375 16.6 28 16.6 28C16.6 28 17.1192 27.4375 17.9162 26.4735Z" fill="#3744C4"/>
</svg>
