<svg width="40" height="40" viewBox="0 0 40 40" fill="none" xmlns="http://www.w3.org/2000/svg">
<path d="M14.2176 6.19528L15.0572 6.19228C14.977 6.04168 14.8969 5.89107 14.8167 5.74046C14.9534 5.7783 15.0902 5.81614 15.2273 5.85398C15.2273 5.697 15.2269 5.54003 15.2266 5.38305C15.0812 5.4179 14.9362 5.45274 14.7909 5.4872C14.8287 5.32686 14.8665 5.16614 14.9044 5.00579C14.738 5.00541 14.5717 5.00504 14.4053 5.00467C14.4417 5.16614 14.478 5.32761 14.5144 5.48908C14.3623 5.45573 14.2102 5.42202 14.0581 5.38867C14.0581 5.54827 14.0581 5.70787 14.0581 5.86747L14.4878 5.77193L14.2173 6.19528H14.2176Z" fill="white"/>
<path d="M24.9856 6.19528L25.8252 6.19228C25.745 6.04168 25.6648 5.89107 25.5847 5.74046C25.7214 5.7783 25.8582 5.81614 25.9953 5.85398C25.9953 5.697 25.9949 5.54003 25.9945 5.38305C25.8492 5.4179 25.7042 5.45274 25.5588 5.4872C25.5967 5.32686 25.6345 5.16614 25.6723 5.00579C25.506 5.00541 25.3397 5.00504 25.1733 5.00467C25.2097 5.16614 25.246 5.32761 25.2823 5.48908C25.1302 5.45573 24.9781 5.42202 24.826 5.38867C24.826 5.54827 24.826 5.70787 24.826 5.86747L25.2557 5.77193L24.9852 6.19528H24.9856Z" fill="white"/>
<path d="M13.4069 8.79792H15.8009C17.8093 8.79792 18.7085 7.57246 18.9771 6.51035H21.0208C21.2894 7.57246 22.2002 8.79792 24.197 8.79792H26.5793C26.5793 8.79792 26.9997 8.23783 27.105 7.9576C27.4785 6.95393 26.9997 6.48713 26.2991 6.48713L25.3884 7.30422L24.4776 6.48713C23.777 6.48713 23.2982 6.95393 23.6717 7.9576C23.7186 8.0861 23.8351 8.27267 23.9404 8.43601C23.0997 8.3195 22.0136 7.74742 21.7802 6.51035C21.7802 6.51035 22.4107 5.5183 22.5624 5.12155C23.1229 3.68592 22.4107 3.09062 21.3478 3.09062L19.9935 4.67798L18.6388 3.09062C17.5879 3.09062 16.8637 3.67431 17.4242 5.12155C17.5759 5.5183 18.2065 6.51035 18.2065 6.51035C17.9731 7.74742 16.887 8.3195 16.0463 8.43601C16.1516 8.27267 16.2681 8.08572 16.3149 7.9576C16.6888 6.95393 16.2096 6.48713 15.509 6.48713L14.5983 7.30422L13.6875 6.48713C12.9869 6.48713 12.5082 6.95393 12.8817 7.9576C12.9986 8.23783 13.4073 8.79792 13.4073 8.79792H13.4069Z" fill="white"/>
<path d="M19.3975 2.89768L20.5596 2.89356C20.4487 2.68525 20.3378 2.47658 20.2269 2.26828C20.4165 2.32073 20.6057 2.37318 20.7949 2.42563C20.7949 2.20833 20.7941 1.99104 20.7937 1.77375C20.5926 1.8217 20.3918 1.87003 20.1906 1.91799C20.243 1.69582 20.2955 1.47366 20.3479 1.2515C20.1179 1.25112 19.8875 1.25037 19.6575 1.25C19.7077 1.47366 19.7582 1.69732 19.8084 1.92061C19.5979 1.87415 19.3873 1.82807 19.1768 1.78162C19.1768 2.00266 19.1768 2.22332 19.1768 2.44436L19.7717 2.31211L19.3975 2.89805V2.89768Z" fill="white"/>
<path d="M9.41773 31.2446C9.77814 31.6496 10.3596 31.8025 10.8912 31.644L9.17047 30.0533C9.02773 30.4631 9.11952 30.9097 9.41811 31.2446H9.41773Z" fill="white"/>
<path d="M7.96524 9.63824C8.30392 9.38161 9.54174 8.66942 9.23828 10.035C9.36678 10.035 9.79874 9.74314 9.79874 9.35801C9.79874 8.51769 8.63098 8.13255 8.63098 7.31546C8.63098 6.10162 10.5814 6.10162 10.5229 6.30018C10.1842 7.3739 10.8264 8.72786 12.6715 8.82115C12.6831 8.79792 12.6715 8.56452 12.6715 8.56452C11.1298 8.56452 10.4177 6.9071 11.6322 5.78654C10.9781 3.74399 9.98569 5.78654 9.14499 6.31179C8.67781 6.60364 7.36994 6.42831 7.26504 7.012C7.12492 7.81748 8.63136 7.80549 7.96562 9.63824H7.96524Z" fill="white"/>
<path d="M8.98127 18.5203C9.05133 18.672 9.12139 18.8121 9.19145 18.9522C7.00766 20.2013 3.94833 20.0608 3.49276 20.0376C3.45755 20.0376 3.43432 20.0608 3.43432 20.096C3.46954 21.6017 4.94076 22.0101 6.24863 21.8351C7.35795 21.6834 8.91084 20.9479 10.0085 20.1192C10.1138 20.2357 10.2303 20.3526 10.3588 20.4692C9.30796 22.185 6.84394 22.8852 6.03808 22.9437C6.00287 22.9437 5.97964 22.9905 5.99125 23.0137C6.5165 23.9241 7.70786 24.2159 9.00413 23.5974C9.77476 23.2239 10.7324 22.2667 11.3981 21.1697C11.5498 21.2398 11.7016 21.3098 11.8653 21.3563C11.4565 23.3989 9.41324 24.6475 9.05096 24.8577C9.02773 24.8693 9.01574 24.9042 9.03934 24.9394C9.64664 25.6164 11.0478 25.628 11.9121 24.6475C12.4377 24.0406 12.8465 22.9201 13.0682 21.5545C13.3016 21.5545 13.6519 21.5897 14.0258 21.7062V21.671C14.0258 21.0173 14.1311 20.3755 14.3293 19.7802C14.0138 19.7918 13.7104 19.7686 13.4654 19.7217C12.3444 19.5232 11.4918 18.6128 11.4918 17.5158C11.4918 16.8857 11.772 16.3136 12.2275 15.9053C12.3208 15.8236 12.3092 15.6719 12.2043 15.6018C12.1459 15.5666 12.099 15.5317 12.0526 15.5085C8.11735 13.0224 4.5324 7.25664 4.14689 6.62649C4.12366 6.59165 4.08844 6.59165 4.06522 6.61488C2.86261 7.67699 2.73411 9.74277 4.00677 11.377C4.84747 12.4507 6.61091 13.6297 8.42081 14.645C8.39758 14.8315 8.37398 15.0301 8.37398 15.2167C4.64891 14.4232 2.28979 11.867 1.90465 11.435C1.88143 11.3998 1.8346 11.4118 1.81137 11.4466C1.1224 12.789 1.71808 14.5861 3.0844 15.3332C4.27539 15.9985 6.14373 16.3837 8.45602 16.6519C8.47963 16.8153 8.51447 16.9786 8.54931 17.1423C5.09286 17.6091 2.39544 16.3488 1.92826 16.1151C1.89304 16.1034 1.84658 16.1151 1.84658 16.1499C1.67125 17.5855 2.58238 18.7293 4.13527 18.9863C5.68817 19.2898 8.98127 18.5195 8.98127 18.5195V18.5203Z" fill="white"/>
<path d="M3.47515 26.1637C3.85879 26.3447 4.24917 26.3746 4.64217 26.1836C4.71035 26.3402 4.83473 26.4218 4.99058 26.4687C5.1869 26.5279 5.3656 26.487 5.53756 26.3885C5.60387 26.3507 5.65857 26.3282 5.73425 26.3997C6.89039 27.4948 8.04954 28.5862 9.21093 29.6756C9.21318 29.6779 9.21505 29.6797 9.2173 29.682L11.2479 31.5589C11.2651 31.5683 11.2823 31.581 11.3011 31.5987C11.5809 31.8639 11.8664 32.1228 12.147 32.3876C12.2819 32.515 12.44 32.5416 12.6063 32.4888C12.9053 32.3936 12.984 32.0497 12.7565 31.8321C12.4992 31.5855 12.2362 31.3435 11.9593 31.0876L9.91488 29.2088C9.90065 29.1998 9.88641 29.1893 9.87105 29.1751C9.14125 28.482 8.40695 27.793 7.67302 27.1048C7.18037 26.6429 6.68584 26.1832 6.19356 25.7239C6.3629 25.3159 6.2771 25.0222 5.9388 24.8412C6.23702 24.0065 5.67505 23.1801 4.82424 23.0576C4.83998 23.2943 4.85571 23.5296 4.87257 23.7847C4.79614 23.7533 4.74632 23.7327 4.69611 23.7121C4.39116 23.5884 4.07908 23.5094 3.74602 23.548C3.41034 23.5869 3.21216 23.7885 3.17994 24.1223C3.14659 24.4662 3.2661 24.7708 3.41634 25.0679C3.43919 25.1136 3.46129 25.1593 3.49089 25.2196H2.73748C2.8495 25.6508 3.1125 25.9929 3.4759 26.1645L3.47515 26.1637Z" fill="white"/>
<path d="M26.1819 11.9374C25.9717 11.9606 25.2475 12.2761 24.9324 12.6612C25.4112 12.5095 26.2403 12.4979 26.8124 13.0115C26.8124 12.4747 26.3452 11.9962 26.1819 11.9378V11.9374Z" fill="white"/>
<path d="M21.476 17.5046C21.1489 17.5979 20.1329 17.8897 19.5376 17.9014C19.3975 18.2981 20.5536 18.7184 20.4952 18.7533C20.4367 18.7881 19.1288 18.9751 18.9303 18.9399C18.7317 18.9046 17.1204 18.9983 16.6768 18.9046C16.5251 18.8694 16.0579 19.1032 16.2328 19.1849C16.2681 19.1965 16.5599 19.1264 16.6768 19.1849C16.8401 19.2549 16.8169 19.3714 16.9102 19.3598C17.0155 19.3598 17.0035 19.3366 17.0503 19.2782C17.0971 19.2197 17.1672 19.1849 17.1904 19.1616C17.202 19.15 17.2137 19.15 17.2257 19.15L20.285 19.4767C20.285 19.4767 20.4135 20.6089 19.6545 20.994C19.1757 21.2507 18.65 22.5113 18.4635 22.9313C18.4283 23.013 18.3582 23.083 18.2649 23.1179C18.1596 23.1531 18.0315 23.1995 17.9378 23.2696C17.7629 23.3865 16.8986 24.3085 16.8053 24.4834C16.7004 24.6588 16.4434 24.6236 16.3733 24.7285C16.21 24.9502 16.4786 25.1836 16.2917 25.3586C16.1984 25.4639 16.3733 25.8955 16.455 25.8955C16.5835 25.8955 16.6067 25.8606 16.712 25.5452C16.8169 25.2301 16.8405 24.903 16.9222 24.7749C17.0039 24.6464 18.7321 23.6311 18.9775 23.3977C19.176 23.2112 19.9235 22.4521 20.2037 22.1607C20.2737 22.0906 20.367 22.0441 20.4723 22.0441L21.5232 22.0089C21.5232 22.0089 21.0912 22.4173 20.8226 22.6159C20.6124 22.5458 20.4723 22.5574 20.4139 22.6042C20.2737 22.6859 20.4371 23.001 20.2505 23.1995C20.1336 23.3513 20.0872 23.6547 20.122 23.678C20.1688 23.7132 20.2854 23.6315 20.309 23.6195C20.5075 23.4446 20.9747 22.9425 21.57 22.5806C22.8078 21.8452 23.0296 21.635 23.0412 21.4953C23.0528 21.3203 22.9479 21.1918 22.8078 21.157C22.586 21.0985 21.0328 21.0637 21.0796 21.0053C21.2197 20.9 21.757 20.2466 21.8502 19.9315C21.9319 19.6397 21.7101 19.1613 21.6749 19.0212C21.6401 18.881 21.7566 18.6829 21.7566 18.6829L22.2238 18.7061C22.2238 18.7061 22.3406 18.2741 22.2822 18.2041C22.2121 18.1224 22.2005 17.8774 22.2005 17.8774V17.8541C22.1305 17.4574 21.8034 17.4106 21.4767 17.5039L21.476 17.5046Z" fill="white"/>
<path d="M17.4707 25.6516C17.5175 25.8382 17.6576 25.955 17.7393 25.9314C17.8562 25.8962 17.9259 25.6164 17.9611 25.4062C17.9843 25.2428 18.1128 24.951 18.1128 24.951L19.5024 24.1107L19.8058 23.1302C19.8058 23.1302 18.0776 24.6708 17.8206 24.7176C17.5171 24.7644 17.5872 24.9862 17.5756 25.126C17.5756 25.3477 17.3886 25.2777 17.4703 25.6512L17.4707 25.6516Z" fill="white"/>
<path d="M27.4081 11.5055C28.0622 11.6107 28.2724 12.0539 28.3188 12.1824C28.5406 11.9959 28.7508 11.3421 28.6691 10.9102C28.2836 8.89083 23.5661 10.2332 21.1957 9.36962C21.1489 9.95332 21.9315 10.8985 22.667 11.2488C21.6625 12.1124 20.7402 13.6881 20.2846 15.6374C21.219 15.6726 22.0945 15.906 22.8655 16.3144C22.6321 14.0268 24.8624 11.1319 27.4081 11.5055Z" fill="white"/>
<path d="M21.5809 23.9709C21.6393 23.8893 22.0128 23.3172 22.1762 23.1774C22.3395 23.0373 22.3515 22.9909 23.2038 22.5589C24.1498 22.0805 24.4885 21.6954 24.5001 21.5316C24.5233 21.3098 24.3367 21.1465 24.103 21.0997C23.8696 21.0528 23.3439 21.0296 23.3439 21.0296C23.414 21.0296 23.6594 21.2862 23.671 21.45C23.6826 21.6133 23.6242 21.7186 23.4492 21.8703C23.2739 22.022 22.5853 22.442 22.1529 22.7106C21.721 22.9909 21.721 22.9324 21.6157 22.944C21.5104 22.9557 21.4872 23.1306 21.5104 23.3176C21.5457 23.5041 21.4052 23.6326 21.3819 23.7727C21.3467 23.9129 21.522 24.053 21.5805 23.9713L21.5809 23.9709Z" fill="white"/>
<path d="M22.6902 19.0571L22.2815 19.0339C22.2815 19.0339 22.3983 19.664 22.3399 19.9795C22.2931 20.2129 21.8263 20.7966 21.8263 20.7966L22.5152 20.855C22.5152 20.855 23.0409 20.1897 23.1225 20.0147C23.2158 19.8398 23.0761 19.0575 23.0873 18.9526C23.0989 18.8473 23.2506 18.6608 23.2506 18.6608L23.6478 18.684C23.6478 18.684 23.753 18.2172 23.6478 18.1123C23.5193 17.9954 23.6594 17.7856 23.5077 17.5406C23.3559 17.2956 22.5501 17.4473 22.5501 17.4473C22.5853 17.4473 22.9004 18.0542 22.8887 18.3577C22.8771 18.6027 22.6902 19.0579 22.6902 19.0579V19.0571Z" fill="white"/>
<path d="M15.0767 12.6612C14.7613 12.2761 14.0374 11.9726 13.8273 11.9258C13.6639 11.9843 13.1967 12.4627 13.1967 13.0111C13.7808 12.5091 14.6099 12.5207 15.0767 12.6609V12.6612Z" fill="white"/>
<path d="M18.8602 9.36962C16.4779 10.2332 11.7604 8.8912 11.3869 10.9102C11.3052 11.3421 11.5154 11.9839 11.7371 12.1824C11.7724 12.0423 11.9825 11.5987 12.6479 11.5055C15.1936 11.1203 17.4355 14.0733 17.1788 16.3841C17.9495 15.9637 18.837 15.6955 19.7713 15.6486C19.3158 13.6877 18.3934 12.1236 17.389 11.2485C18.1364 10.8982 18.907 9.95294 18.8602 9.36925V9.36962Z" fill="white"/>
<path d="M29.475 6.27658C29.4165 6.09 31.3669 6.07802 31.3669 7.29186C31.3669 8.10895 30.1991 8.49408 30.1991 9.33441C30.1991 9.73115 30.6195 10.0114 30.7596 10.0114C30.4558 8.65743 31.7056 9.36925 32.0326 9.61464C31.3669 7.79388 32.8617 7.80549 32.7216 6.96517C32.6163 6.38148 31.3088 6.55681 30.8417 6.26496C30.001 5.73971 29.0082 3.69716 28.3544 5.73971C29.569 6.86027 28.8684 8.51769 27.3151 8.51769C27.3151 8.51769 27.3035 8.7627 27.3151 8.77432C29.1719 8.70426 29.814 7.36191 29.4753 6.27658H29.475Z" fill="white"/>
<path d="M29.8103 27.6469L30.24 27.5514L29.9695 27.9747L30.8091 27.9717C30.7289 27.8211 30.6487 27.6705 30.5685 27.5199C30.7053 27.5578 30.842 27.5956 30.9791 27.6334C30.9791 27.4765 30.9788 27.3195 30.9784 27.1625C30.833 27.1974 30.688 27.2322 30.5427 27.2667C30.5805 27.1063 30.6184 26.9456 30.6562 26.7852C30.4899 26.7849 30.3235 26.7845 30.1572 26.7841C30.1935 26.9456 30.2299 27.1071 30.2662 27.2685C30.1141 27.2352 29.962 27.2015 29.8099 27.1681C29.8099 27.3277 29.8099 27.4873 29.8099 27.6469H29.8103Z" fill="white"/>
<path d="M29.04 28.3951C28.6684 28.657 28.3941 28.9945 28.2499 29.4254C28.2435 29.4445 28.2364 29.4617 28.2289 29.4771C28.2184 29.513 28.2079 29.549 28.1993 29.5872C28.1622 29.7517 28.0659 30.2758 28.3005 30.8231C28.351 30.9412 28.4113 31.0464 28.4735 31.1401C28.4971 31.1648 28.52 31.1903 28.541 31.2169C29.3558 32.2449 30.7907 32.4555 31.8333 31.6635C32.3279 31.2881 32.6388 30.7924 32.6418 30.1582C32.6456 29.4021 32.3016 28.8169 31.6857 28.3842C31.5988 28.3232 31.5434 28.3306 31.4647 28.3936C31.1058 28.6821 30.7424 28.9645 30.3756 29.2534C30.3321 29.2215 30.2909 29.1938 30.252 29.1631C29.929 28.9095 29.6031 28.6592 29.2861 28.3985C29.1932 28.322 29.131 28.3303 29.04 28.3947V28.3951Z" fill="white"/>
<path d="M26.5835 27.3124C26.7663 26.7144 26.8195 26.1143 26.5707 25.522C26.3501 24.9963 25.9522 24.6513 25.4314 24.4441C24.2292 26.5425 22.45 27.7211 20.0284 27.7117C17.601 27.7027 15.8267 26.5103 14.644 24.3965C14.6136 24.407 14.5762 24.4179 14.5398 24.4321C13.5515 24.8232 13.0529 25.7887 13.2668 26.8714C13.4013 27.551 13.6988 28.1557 14.0738 28.7285C14.2978 29.0706 14.2982 29.0945 13.9093 29.2328C13.1773 29.4935 12.4201 29.6172 11.6424 29.5928C11.5569 29.5902 11.4588 29.5509 11.3913 29.4973C11.0733 29.2448 10.7264 29.1421 10.351 29.1762L12.0762 30.7613C12.2201 30.6864 12.3605 30.6145 12.5044 30.5538C13.3852 30.181 14.3109 30.0192 15.2633 29.9903C15.506 29.9828 15.5926 29.8405 15.5154 29.6044C15.4705 29.4669 15.427 29.3279 15.4 29.1863C15.2809 28.5588 15.6585 27.9897 16.2842 27.8661C16.7311 27.7777 17.1267 27.9287 17.4815 28.1853C18.193 28.6993 18.5672 29.446 18.8849 30.2432C18.8299 30.2597 18.7875 30.2732 18.7448 30.2848C17.3474 30.6688 16.0414 31.242 14.9017 32.1535C14.4563 32.5098 14.0704 32.92 13.8374 33.4535C13.7557 33.6405 13.731 33.8323 13.801 34.023C14.0105 34.5935 14.4469 34.9052 15.013 35.0618C15.1003 35.0858 15.1307 35.0454 15.1543 34.9596C15.2202 34.7194 15.2805 34.4744 15.3802 34.2474C15.9766 32.8859 17.0065 31.9377 18.2956 31.2499C18.5601 31.1086 18.8494 31.0135 19.1348 30.8936C19.1817 31.0142 19.2131 31.0955 19.23 31.1397C18.8254 31.4173 18.423 31.6552 18.0641 31.9467C17.1799 32.6645 16.5412 33.5569 16.2505 34.6733C16.2175 34.8007 16.2055 34.9423 16.2227 35.072C16.3025 35.6751 17.0065 36.161 17.5197 36.2967C17.6074 36.3199 17.6306 36.2757 17.6415 36.1955C17.6988 35.7853 17.7352 35.3698 17.8277 34.9671C18.084 33.8521 18.5279 32.8219 19.2854 31.9459C19.3289 31.8957 19.3641 31.8384 19.4031 31.7841C19.4293 31.7983 19.4555 31.8129 19.4821 31.8272C19.4593 32.0265 19.4683 32.2355 19.4087 32.4229C19.0625 33.5056 18.7767 34.5995 18.6774 35.7366C18.6418 36.1449 18.6718 36.5241 18.9797 36.838C19.2506 37.1138 19.5653 37.3217 19.9126 37.4832C19.956 37.5034 20.0235 37.506 20.0669 37.4877C20.4333 37.3307 20.7698 37.125 21.0455 36.8324C21.2602 36.605 21.392 36.3394 21.3628 36.0191C21.3265 35.6212 21.2935 35.2214 21.2306 34.8273C21.0938 33.9724 20.8552 33.1422 20.5828 32.3213C20.5266 32.1524 20.5558 31.986 20.6064 31.7714C20.7997 32.0227 20.9766 32.2277 21.1264 32.451C21.8813 33.5768 22.2721 34.8292 22.3901 36.1715C22.4021 36.309 22.4527 36.3199 22.5591 36.2843C22.9371 36.158 23.2664 35.955 23.5271 35.6515C23.7984 35.3365 23.8789 34.9854 23.7564 34.5763C23.3642 33.2688 22.5426 32.2955 21.428 31.5469C21.2261 31.4113 21.0084 31.2986 20.7889 31.1697C20.8196 31.0865 20.8499 31.0052 20.8829 30.9164C20.9792 30.9449 21.0612 30.9655 21.1403 30.9932C21.9428 31.2735 22.6329 31.7384 23.251 32.3108C24.037 33.0384 24.6406 33.884 24.871 34.9539C24.8965 35.0723 24.9639 35.0813 25.0572 35.0547C25.482 34.9348 25.8286 34.7026 26.0762 34.3335C26.2853 34.0218 26.3126 33.7023 26.138 33.358C25.854 32.7971 25.418 32.3749 24.9275 32.004C24.0086 31.3094 22.9794 30.8276 21.8907 30.4665C21.6423 30.3841 21.3891 30.3166 21.135 30.2413C21.3167 29.7487 21.5355 29.2894 21.8461 28.8795C22.184 28.4333 22.5752 28.0519 23.1341 27.8946C23.7894 27.7102 24.4102 28.0156 24.5806 28.612C24.6777 28.9518 24.6271 29.2845 24.499 29.6104C24.4132 29.8277 24.5143 29.9746 24.7443 29.9914C25.0684 30.015 25.3944 30.0289 25.7158 30.0724C26.4831 30.1758 27.2264 30.3732 27.9108 30.743C27.9131 30.7441 27.9153 30.7456 27.9176 30.7467C27.7673 30.3043 27.7891 29.8914 27.8569 29.5737C27.468 29.528 27.0776 29.4913 26.6944 29.4171C26.4036 29.3609 26.1212 29.2485 25.8443 29.1376C25.6836 29.0736 25.6843 29.0204 25.7806 28.8806C26.1167 28.3925 26.4081 27.8814 26.5827 27.3112L26.5835 27.3124Z" fill="white"/>
<path d="M38.0812 16.1506C37.6257 16.3841 34.9166 17.6447 31.4602 17.1779C31.4954 17.0146 31.5302 16.8512 31.5535 16.6879C33.8538 16.4193 35.7341 16.0225 36.9251 15.3688C38.2798 14.6101 38.8751 12.8126 38.1981 11.4822C38.1749 11.447 38.1281 11.447 38.1048 11.4706C37.7309 11.9026 35.3606 14.4584 31.6355 15.2523C31.6239 15.0537 31.6123 14.8671 31.5771 14.6806C33.387 13.6653 35.1504 12.4863 35.9911 11.4125C37.2641 9.79035 37.1473 7.71258 35.9327 6.65047C35.9094 6.62724 35.8626 6.63886 35.851 6.66208C35.4659 7.29223 31.8805 13.058 27.9453 15.5441C27.9101 15.5673 27.852 15.6025 27.8052 15.6374C27.6883 15.7074 27.6767 15.8476 27.7819 15.9408C28.2371 16.3492 28.5177 16.9213 28.5177 17.5514C28.5177 18.6484 27.6654 19.5588 26.5441 19.7573C26.334 19.7925 26.0889 19.8158 25.8203 19.8158C26.0189 20.4111 26.1242 21.0412 26.1242 21.695C26.4392 21.6133 26.7314 21.5785 26.9416 21.5785C27.1634 22.9324 27.5721 24.0646 28.0978 24.6715C28.9501 25.652 30.3512 25.6403 30.9705 24.9634C30.9938 24.9401 30.9821 24.9049 30.9589 24.8817C30.597 24.6831 28.5533 23.4344 28.1446 21.3803C28.3079 21.3218 28.4597 21.2634 28.6118 21.1937C29.2659 22.279 30.2351 23.2479 31.0057 23.6214C32.302 24.2399 33.493 23.9365 34.0186 23.0377C34.0418 23.0025 34.0186 22.9676 33.9718 22.9676C33.1659 22.9092 30.7023 22.1974 29.651 20.4931C29.7679 20.3882 29.8848 20.2713 30.0013 20.1428C31.099 20.9715 32.6519 21.707 33.7612 21.8583C35.0575 22.0337 36.5407 21.6249 36.5756 20.1192C36.5756 20.084 36.5523 20.0608 36.5171 20.0608C36.0499 20.084 32.9906 20.2241 30.8188 18.9755C30.8889 18.8353 30.9589 18.6836 31.029 18.5435C31.029 18.5435 34.3221 19.3138 35.8866 19.0571C37.4399 18.8005 38.3506 17.6567 38.1753 16.2211C38.152 16.1626 38.1052 16.1394 38.082 16.151L38.0812 16.1506Z" fill="white"/>
</svg>
