<svg width="26" height="26" viewBox="0 0 26 26" fill="none" xmlns="http://www.w3.org/2000/svg">
<g clip-path="url(#clip0_6532_5203)">
<rect width="26" height="26" fill="white"/>
<path d="M24.6905 8.62469C24.5882 7.28479 23.5655 5.56697 22.5427 4.7424C21.3926 3.89856 20.1977 3.11865 18.9632 2.40616C17.738 1.67433 16.4749 1.00915 15.1791 0.413481C14.4869 0.12893 13.7447 -0.0113188 12.9973 0.00120466C12.2496 -0.0146276 11.5067 0.125745 10.8155 0.413481C9.51991 1.00957 8.25676 1.67474 7.03139 2.40616C5.05413 3.60864 3.45184 4.7424 3.45184 4.7424C2.92089 5.19021 2.4712 5.71919 2.1162 6.30537C2.07548 6.3726 2.1246 6.4573 2.2032 6.4573H3.86483C3.90495 6.4573 3.94296 6.43959 3.96927 6.40933C4.1609 6.18885 4.37065 5.98264 4.59726 5.79313C4.59726 5.79313 6.00727 4.80366 7.74728 3.75421C8.82563 3.11588 9.93717 2.53537 11.0773 2.01515C11.6855 1.76403 12.3393 1.64152 12.9973 1.65534C13.655 1.64441 14.3082 1.76681 14.9173 2.01515C16.0575 2.535 17.1692 3.11552 18.2473 3.75421C19.3336 4.376 20.3852 5.05667 21.3973 5.79313C22.2973 6.51272 23.1973 8.0119 23.2873 9.18129C23.2873 9.18129 23.4973 10.9204 23.5273 12.9803C23.5254 14.2524 23.4553 15.5235 23.3173 16.7882C23.108 18.1124 22.4259 19.316 21.3973 20.1764C21.3973 20.1764 19.9873 21.1958 18.2473 22.2452C17.1689 22.8836 16.0574 23.4641 14.9173 23.9843C14.309 24.2355 13.6553 24.3579 12.9973 24.3441C12.3401 24.3579 11.687 24.2386 11.0773 23.9933C9.93701 23.4734 8.82543 22.893 7.74728 22.2543C6.00727 21.2348 4.59726 20.1853 4.59726 20.1853C4.41416 20.0389 4.23102 19.8603 4.05448 19.6586C4.02817 19.6286 3.9903 19.611 3.95035 19.611H2.28258C2.20298 19.611 2.15398 19.6977 2.19643 19.765C2.56708 20.3531 3.00945 20.8769 3.45184 21.2335C3.45184 21.2335 5.05413 22.436 7.03139 23.6041C8.25655 24.336 9.51971 25.0012 10.8155 25.5968C11.5084 25.8778 12.2506 26.0146 12.9973 25.9988C13.745 26.0146 14.4879 25.8742 15.1791 25.5865C16.4747 24.9904 17.7378 24.3252 18.9632 23.5938C20.9405 22.3913 22.5427 21.2232 22.5427 21.2232C23.7116 20.2373 24.4867 18.8582 24.7245 17.3409C24.8814 15.8918 24.9611 14.4353 24.9632 12.9777C24.9291 10.6173 24.6905 8.62469 24.6905 8.62469Z" fill="url(#paint0_linear_6532_5203)"/>
<path d="M8.97998 16.5026H8.17361C8.14664 16.5026 8.12702 16.4764 8.13437 16.4502C8.2692 15.9913 8.40973 15.4719 8.50694 14.8961C8.60659 14.3007 8.65892 13.7518 8.68098 13.2619C8.68179 13.2398 8.69975 13.2227 8.72181 13.2227H11.1183C11.1409 13.2227 11.1591 13.2409 11.1591 13.2635V16.4616C11.1591 16.4842 11.1409 16.5026 11.1183 16.5026H10.333C10.3104 16.5026 10.2922 16.4842 10.2922 16.4616V13.9915H9.50392C9.47495 14.3561 9.42608 14.7477 9.34601 15.1611C9.25286 15.6454 9.14256 16.0846 9.01837 16.4747C9.01349 16.4911 8.99712 16.5026 8.97998 16.5026Z" fill="#EE2F53"/>
<path d="M1.39844 8.48036C1.39844 8.45778 1.41671 8.43945 1.43925 8.43945H3.74965C3.77851 8.43945 3.79803 8.46927 3.78682 8.49617L3.5007 9.18334C3.49314 9.2015 3.47586 9.20974 3.45946 9.20812C3.45811 9.20824 3.45675 9.20832 3.45537 9.20832H2.26366V11.6785C2.26366 11.7011 2.24538 11.7194 2.22284 11.7194H1.43925C1.41671 11.7194 1.39844 11.7011 1.39844 11.6785V8.48036Z" fill="#0066B3"/>
<path d="M15.4766 13.2635C15.4766 13.2409 15.4948 13.2227 15.5174 13.2227H17.8326C17.8615 13.2227 17.8811 13.2524 17.8699 13.2794L17.5832 13.9665C17.5756 13.9847 17.5583 13.9929 17.5418 13.9913C17.5405 13.9914 17.5391 13.9915 17.5378 13.9915H16.3435V16.4616C16.3435 16.4842 16.3253 16.5026 16.3027 16.5026H15.5174C15.4948 16.5026 15.4766 16.4842 15.4766 16.4616V13.2635Z" fill="#EE2F53"/>
<path d="M1.43931 13.2227C1.41094 13.2227 1.39121 13.2506 1.40096 13.2769L2.59398 16.503C2.42563 16.857 2.23859 17.2296 2.02468 17.6448C2.01068 17.672 2.03019 17.7049 2.06082 17.7049H2.90953C2.92494 17.7049 2.93915 17.696 2.94611 17.6823C3.57412 16.4044 4.03625 15.2715 4.6681 13.2767C4.67671 13.2503 4.65721 13.2227 4.62938 13.2227H3.84111C3.82281 13.2227 3.80665 13.2351 3.80164 13.2526C3.55839 14.1055 3.33411 14.773 3.07412 15.4164L2.27269 13.2491C2.26681 13.2332 2.25149 13.2227 2.23435 13.2227H1.43931Z" fill="#EE2F53"/>
<path d="M11.7284 13.2227C11.7 13.2227 11.6803 13.2506 11.69 13.2769L12.8831 16.503C12.7147 16.857 12.5276 17.2296 12.3137 17.6448C12.2997 17.672 12.3193 17.7049 12.3499 17.7049H13.1986C13.214 17.7049 13.2282 17.696 13.2352 17.6823C13.8632 16.4044 14.3253 15.2715 14.9572 13.2767C14.9657 13.2503 14.9462 13.2227 14.9185 13.2227H14.1302C14.1119 13.2227 14.0957 13.2351 14.0907 13.2526C13.8475 14.1055 13.6232 14.773 13.3632 15.4164L12.5618 13.2491C12.5559 13.2332 12.5405 13.2227 12.5234 13.2227H11.7284Z" fill="#EE2F53"/>
<path d="M7.48215 15.7277C7.47809 15.7173 7.46997 15.7084 7.4594 15.7035C7.44888 15.6986 7.43669 15.6986 7.42613 15.7019C7.23783 15.7714 6.8848 15.828 6.63886 15.828C6.10074 15.828 5.84427 15.6833 5.84427 14.8614C5.84427 14.2043 5.92301 13.8948 6.63886 13.8948C6.84178 13.8948 7.03008 13.9239 7.26948 13.9934C7.28898 13.999 7.31007 13.9902 7.319 13.9724C7.4083 13.8051 7.51624 13.6006 7.63799 13.3501C7.64368 13.3387 7.64368 13.3258 7.6388 13.3145C7.63393 13.3032 7.62418 13.2943 7.61199 13.2903C7.29711 13.1901 6.92132 13.1318 6.58288 13.1318C5.45549 13.1318 4.95312 13.6612 4.95312 14.8493C4.95312 16.0542 5.45549 16.5917 6.58288 16.5917C6.8653 16.5917 7.42207 16.5327 7.69072 16.426C7.71185 16.4171 7.72318 16.3929 7.7151 16.3719L7.48215 15.7277Z" fill="#EE2F53"/>
<path d="M10.1853 10.9445C10.1812 10.934 10.1731 10.9252 10.1626 10.9203C10.152 10.9154 10.1398 10.9154 10.1293 10.9187C9.94096 10.9882 9.58793 11.0448 9.34198 11.0448C8.80391 11.0448 8.5474 10.9001 8.5474 10.0782C8.5474 9.42113 8.62613 9.11157 9.34198 9.11157C9.54491 9.11157 9.7332 9.14066 9.97265 9.21017C9.99211 9.21585 10.0132 9.20696 10.0221 9.18916C10.1114 9.02187 10.2194 8.81741 10.3411 8.56687C10.3468 8.55554 10.3468 8.54262 10.3419 8.53128C10.3371 8.51999 10.3273 8.51109 10.3152 8.50707C10.0002 8.40685 9.62445 8.34863 9.286 8.34863C8.15866 8.34863 7.65625 8.87802 7.65625 10.0661C7.65625 11.271 8.15866 11.8085 9.286 11.8085C9.56843 11.8085 10.1252 11.7495 10.3938 11.6428C10.415 11.6339 10.4263 11.6097 10.4182 11.5887L10.1853 10.9445Z" fill="#0066B3"/>
<path d="M5.53129 8.34863C4.42913 8.34863 4 8.83008 4 10.0659C4 11.3206 4.42913 11.8085 5.53129 11.8085C6.64226 11.8085 7.0754 11.3206 7.0754 10.0659C7.0754 8.83008 6.64226 8.34863 5.53129 8.34863ZM5.53129 11.0884C5.02916 11.0884 4.87271 10.9494 4.87271 10.0782C4.87271 9.15049 5.04358 9.06794 5.53129 9.06794C6.02862 9.06794 6.2027 9.15049 6.2027 10.0782C6.2027 10.9494 6.04304 11.0884 5.53129 11.0884Z" fill="#0066B3"/>
<path d="M21.0976 13.2227H20.3128C20.2899 13.2227 20.2719 13.2406 20.2719 13.2634V15.7347C20.1019 15.7821 19.9319 15.8049 19.7406 15.8049C19.2648 15.8049 19.1267 15.6711 19.1087 15.1129V13.2634C19.1087 13.2406 19.0907 13.2227 19.0678 13.2227H18.2831C18.2602 13.2227 18.2422 13.2406 18.2422 13.2634V13.2684C18.2422 13.2684 18.2422 15.1283 18.243 15.1308C18.2618 16.1812 18.6427 16.5925 19.5837 16.5925C20.133 16.5925 20.7461 16.453 21.1099 16.3142C21.127 16.3085 21.1377 16.2922 21.1377 16.2742V13.2684V13.2634C21.1385 13.2406 21.1205 13.2227 21.0976 13.2227Z" fill="#EE2F53"/>
</g>
<defs>
<linearGradient id="paint0_linear_6532_5203" x1="13.3293" y1="-0.09464" x2="13.3293" y2="25.9647" gradientUnits="userSpaceOnUse">
<stop stop-color="#0F67B1"/>
<stop offset="0.4" stop-color="#0F67B1"/>
<stop offset="0.66" stop-color="#EE2F53"/>
<stop offset="1" stop-color="#EE2F53"/>
</linearGradient>
<clipPath id="clip0_6532_5203">
<rect width="26" height="26" fill="white"/>
</clipPath>
</defs>
</svg>
