<svg width="32" height="32" viewBox="0 0 32 32" fill="none" xmlns="http://www.w3.org/2000/svg">
<path d="M4 30.1751C4 31.1889 4.81108 32 5.82494 32H26.9132C27.927 32 28.7381 31.1889 28.7381 30.1751V5.74112C28.8395 5.03142 28.4339 4.42311 27.6229 4.01757C27.2173 3.91618 26.609 4.01757 26.4062 4.52449C26.2035 5.03142 26.5076 5.53835 26.9132 5.74112C26.9132 5.84251 26.9132 29.7695 26.9132 29.8709V30.0737H26.7104H6.02771H5.82494V29.8709L5.82494 6.04528V5.84251C6.02771 5.84251 9.47482 5.84251 9.6776 5.84251C9.98175 6.65359 10.5901 7.16052 11.4012 7.16052L21.1342 7.16052C21.9453 7.16052 22.655 6.65359 22.8577 5.84251C23.0605 5.84251 23.3647 5.84251 23.5674 5.84251V6.04528V26.7279V26.9307H23.3647H9.17067H8.9679V26.7279V7.66745C8.9679 7.16052 8.56235 6.85636 8.05543 6.85636C7.5485 6.85636 7.04157 7.26191 7.04157 7.66745L7.04157 26.9307C7.04157 27.9446 7.85265 28.7557 8.86651 28.7557H23.6688C24.6827 28.7557 25.4938 27.9446 25.4938 26.9307V4.82865C25.4938 4.32172 25.0882 3.91618 24.5813 3.91618C24.4799 3.91618 23.0605 3.91618 22.9591 3.91618C22.655 1.88847 20.83 2.29401 19.3092 2.29401C18.5995 -0.747558 14.1386 -0.747558 13.2261 2.19263C13.3275 2.19263 11.5025 2.19263 11.4012 2.19263C10.4887 2.19263 9.6776 2.90232 9.57621 3.8148H9.37344H5.82494C4.81108 3.91618 4 4.72727 4 5.63974L4 30.1751ZM11.5025 5.03142C11.5025 4.82865 11.5025 4.22034 11.5025 4.01757C11.5025 4.01757 13.9358 4.01757 14.0372 4.01757C14.5441 4.01757 14.8483 3.61202 14.8483 3.1051C14.8483 1.28015 17.5857 1.28015 17.5857 3.1051C17.5857 3.61202 17.9912 3.91618 18.3968 3.91618C18.5995 4.11895 21.2356 4.11895 21.2356 4.11895C21.2356 4.42311 21.2356 5.03142 21.2356 5.33558H21.0328L11.8067 5.33558H11.5025V5.03142Z" fill="#3744C4"/>
<path d="M20.0192 11.0137H12.8208C11.7056 11.0137 11.7056 12.7372 12.8208 12.7372H20.0192C21.1344 12.6358 21.2358 11.0137 20.0192 11.0137Z" fill="#3744C4"/>
<path d="M20.0192 15.5752H12.8208C11.7056 15.5752 11.7056 17.2988 12.8208 17.2988H20.0192C21.1344 17.2988 21.1344 15.5752 20.0192 15.5752Z" fill="#3744C4"/>
<path d="M20.0192 20.2393H12.8208C11.7056 20.2393 11.7056 21.9628 12.8208 21.9628H20.0192C21.1344 21.9628 21.1344 20.2393 20.0192 20.2393Z" fill="#3744C4"/>
</svg>
