<svg width="83" height="60" viewBox="0 0 83 60" fill="none" xmlns="http://www.w3.org/2000/svg">
<g clip-path="url(#clip0_3357_41628)">
<path d="M11.1945 17.7672H15.0831L15.0977 4.01005H19.6975L19.6829 17.7774H23.5729L23.5934 0.209288L11.2164 0.194653L11.1945 17.7686V17.7672ZM34.3181 0.0263474C32.5091 0.023185 30.7383 0.546994 29.2221 1.53378C27.7192 2.51102 26.5413 3.91363 25.8385 5.56285C25.1432 7.19943 24.9596 9.0081 25.3116 10.751C25.6672 12.5008 26.5395 14.1036 27.8157 15.3523C29.1058 16.6145 30.7376 17.4708 32.5092 17.8155C34.2878 18.1644 36.1294 17.989 37.8101 17.3105C39.4791 16.6393 40.9128 15.4902 41.9314 14.0074C42.9384 12.5387 43.4791 10.8004 43.4827 9.01969C43.4801 7.83569 43.2413 6.6641 42.7805 5.57347C42.3196 4.48285 41.6458 3.49509 40.7986 2.668C39.0658 0.976642 36.741 0.0287735 34.3196 0.0263474H34.3181ZM34.3035 14.1786C33.2542 14.2132 32.2177 13.9394 31.3223 13.3912C30.4349 12.8484 29.7304 12.0521 29.2997 11.1052C28.8733 10.1652 28.7436 9.11762 28.928 8.10206C29.1146 7.08316 29.6048 6.14447 30.3344 5.40918C31.072 4.66552 32.013 4.15637 33.039 3.94566C34.0686 3.73292 35.138 3.82602 36.1153 4.21348C37.0863 4.59713 37.9213 5.26093 38.514 6.12045C39.1009 6.97515 39.4141 7.98352 39.4141 9.01383C39.4317 9.68266 39.3117 10.35 39.0629 10.9735C38.8141 11.5969 38.4423 12.1663 37.9652 12.6463C37.4873 13.1285 36.9188 13.5115 36.2924 13.7732C35.6628 14.037 34.9876 14.1752 34.3049 14.1801L34.3035 14.1786ZM48.9885 0.241486H45.0472L45.0282 17.8111H48.9153V12.1692H48.9665C49.7656 12.1692 50.5573 12.017 51.2964 11.717C52.0332 11.4201 52.7049 10.9821 53.2736 10.4276C53.84 9.87438 54.2893 9.21726 54.5967 8.49428C54.9032 7.77257 55.0617 6.99664 55.0627 6.21252C55.0637 5.42839 54.9072 4.65206 54.6025 3.92956C54.2955 3.20322 53.8473 2.54509 53.2839 1.99332C52.7163 1.4377 52.0456 0.99823 51.3096 0.699567C50.5696 0.398747 49.7785 0.243702 48.9797 0.24295L48.987 0.241486H48.9885ZM48.9211 8.48111V3.94712C49.5247 3.95166 50.103 4.1904 50.5339 4.61302C50.7433 4.8213 50.9093 5.069 51.0223 5.3418C51.1353 5.61461 51.1932 5.90711 51.1925 6.20241C51.189 6.79876 50.949 7.36933 50.5252 7.78887C50.1007 8.21329 49.5226 8.45623 48.9153 8.4694L48.9211 8.48111V8.48111ZM55.6577 0.237095V4.04811H59.2375L59.2229 17.8052H63.1114L63.1261 4.04811H66.7073V0.237095H55.6577V0.237095ZM0.0526864 8.97286C0.0556147 10.1564 0.2945 11.3274 0.75537 12.4175C1.21624 13.5076 1.88984 14.4949 2.73679 15.3216C4.46951 17.0131 6.79433 17.961 9.21579 17.9633V14.1523C7.85039 14.1107 6.55291 13.5471 5.59065 12.5775C4.64091 11.6198 4.10759 10.326 4.10664 8.97725C4.10664 7.63373 4.64229 6.34291 5.59943 5.37844C6.56323 4.4112 7.86115 3.85023 9.22604 3.81101V4.5627e-06C6.80491 -0.00239373 4.47856 0.940752 2.74264 2.62849C1.89364 3.45349 1.21768 4.43951 0.754294 5.52887C0.290909 6.61822 0.0494042 7.78905 0.043906 8.97286M9.23775 28.1582H4.63936L4.64814 21.2796H0.758104L0.737615 38.8463H4.62765L4.63497 31.9677H9.23482L9.22604 38.8463H13.1146L13.1351 21.2796H9.24653L9.23775 28.1582V28.1582ZM55.8216 31.3574L55.8333 21.3352H51.9989L41.6211 38.8902H46.0892L51.9345 28.9997L51.9243 38.896H55.8319L61.7123 28.9485L61.7021 38.9019H65.5906L65.6097 21.3367H61.743L55.8216 31.3574V31.3574ZM23.8656 21.0967C22.0556 21.093 20.2838 21.6168 18.7667 22.6041C17.2641 23.5819 16.0867 24.9851 15.3845 26.6346C14.6891 28.2717 14.5054 30.0809 14.8577 31.8243C15.2138 33.5741 16.0866 35.177 17.3632 36.4256C18.6538 37.6879 20.2861 38.5442 22.0582 38.8887C23.8369 39.2369 25.6785 39.061 27.3591 38.3823C29.0282 37.7106 30.4619 36.561 31.4803 35.0777C32.4878 33.6087 33.0285 31.8698 33.0317 30.0885C33.0302 27.7074 32.0658 25.4243 30.3476 23.7398C28.615 22.0479 26.2902 21.0995 23.8686 21.0967H23.8656ZM23.8525 35.2504C22.8027 35.2852 21.7657 35.0115 20.8698 34.463C19.9816 33.92 19.2766 33.1232 18.8458 32.1755C18.4195 31.2355 18.2898 30.1879 18.474 29.1724C18.6603 28.153 19.1506 27.2137 19.8805 26.478C20.6182 25.7344 21.5591 25.2253 22.5851 25.0145C23.6151 24.8016 24.685 24.8947 25.6628 25.2823C26.6344 25.6658 27.4699 26.3296 28.063 27.1893C28.6499 28.0455 28.9631 29.0538 28.9616 30.0842C28.9786 30.7544 28.8591 31.4211 28.6104 32.0438C28.3616 32.6673 27.9898 33.2366 27.5142 33.7166C27.0386 34.1981 26.4692 34.5801 25.8414 34.8435C25.2113 35.1075 24.5356 35.2457 23.8525 35.2504V35.2504ZM44.6696 27.28C44.6773 26.4905 44.5239 25.7077 44.2188 24.9794C43.9111 24.2479 43.4591 23.5859 42.89 23.0329C42.3192 22.4768 41.6401 22.0377 40.8937 21.7406C40.1454 21.4449 39.3464 21.2987 38.5418 21.3103H34.602L34.583 38.877H38.4731V33.2366H38.5243C39.3292 33.2512 40.1298 33.1063 40.8776 32.8122C41.6269 32.5195 42.306 32.0819 42.8797 31.5272C43.452 30.971 43.9042 30.311 44.213 29.5807C44.5203 28.8519 44.6755 28.0689 44.6696 27.28V27.28ZM38.4774 29.5485V25.0116C39.0806 25.016 39.6584 25.2548 40.0888 25.6775C40.2993 25.8853 40.4664 26.133 40.5803 26.406C40.6942 26.679 40.7526 26.972 40.7522 27.2678C40.7518 27.5636 40.6925 27.8564 40.5779 28.1291C40.4632 28.4018 40.2955 28.649 40.0844 28.8563C39.6585 29.2807 39.0789 29.5265 38.4716 29.5397L38.4774 29.5456V29.5485ZM76.6007 21.3425L66.2229 38.9004H70.691L72.0697 36.5793H76.892V38.9019H80.7805L80.801 21.3352L76.6007 21.344V21.3425ZM76.8963 33.1751H74.0761L76.9066 28.4055L76.8963 33.1766V33.1751ZM22.8822 42.3748H18.414L13.7454 50.2734L13.7527 42.3675H9.86267L9.85535 50.2734L5.20136 42.3631H0.734688L5.54675 50.5442L0 59.9312H4.46813L9.85389 50.8091L9.84365 59.9268H13.7337L13.7425 50.8091L19.1092 59.9341H23.5759L18.0511 50.5427L22.8807 42.3763L22.8822 42.3748ZM47.4488 50.5178C48.0489 50.1256 48.5348 49.5885 48.8597 48.9577C49.1831 48.3255 49.3353 47.623 49.2987 46.9176C49.2987 43.7491 46.5224 42.3997 43.6173 42.3953H40.9684V46.0307H43.6173C44.9447 46.1536 45.3589 46.739 45.3589 47.6552C45.3676 47.8824 45.3255 48.1087 45.2356 48.3176C45.1457 48.5265 45.0104 48.7127 44.8394 48.8626C44.6675 49.016 44.4644 49.1305 44.2442 49.1982C44.0239 49.2659 43.7916 49.2852 43.5632 49.2548H41.6811V52.596H43.8164C44.083 52.5655 44.353 52.5915 44.6089 52.6722C44.8649 52.7528 45.1009 52.8865 45.3018 53.0644C45.4986 53.2409 45.655 53.4578 45.7603 53.7003C45.8656 53.9427 45.9174 54.205 45.9121 54.4693C45.9121 55.5524 45.2096 56.3236 43.61 56.3368H40.961V59.9707H43.61C47.0376 59.9458 49.9032 58.0389 49.9075 54.5996C49.9427 53.7597 49.7299 52.928 49.2958 52.2082C48.8571 51.482 48.2184 50.8976 47.4561 50.5252L47.4488 50.5178V50.5178ZM60.5283 49.3002H55.5714V42.407H51.6872L51.6682 59.9751H55.5553L55.5641 53.0966H60.5225L60.5137 59.9751H64.4037L64.4228 42.407H60.5342L60.5283 49.3002V49.3002ZM28.6631 52.4438L28.6733 42.3807H24.7847L24.7657 59.9488H28.6953L34.5494 50.0363L34.5391 59.9546H38.4277L38.4482 42.3865H34.6035L28.6631 52.4438V52.4438ZM76.9373 42.4333L70.991 52.4877L71.0027 42.426H67.1127L67.0937 59.9941H71.0247L76.8788 50.0817L76.8685 60H80.7586L80.7776 42.4319H76.9373V42.4333Z" fill="#373C41"/>
<path d="M82.8411 9.06018L79.7282 14.3289H75.7665L77.8417 10.8164L66.7087 10.8062V7.29224L77.8417 7.30395L75.7723 3.78711H79.737L82.8426 9.06164L82.8411 9.06018Z" fill="#A7E600"/>
</g>
<defs>
<clipPath id="clip0_3357_41628">
<rect width="82.8427" height="60" fill="white"/>
</clipPath>
</defs>
</svg>
