<svg width="32" height="32" viewBox="0 0 32 32" fill="none" xmlns="http://www.w3.org/2000/svg">
<mask id="path-1-outside-1_4953_3365" maskUnits="userSpaceOnUse" x="-0.5" y="0" width="33" height="31" fill="black">
<rect fill="white" x="-0.5" width="33" height="31"/>
<path fill-rule="evenodd" clip-rule="evenodd" d="M29.5435 11.6022C28.8024 11.0409 27.7524 10.6043 26.3937 10.2302V8.48391L29.3582 7.48605C29.667 7.36132 29.8523 7.11186 29.8523 6.80003C29.8523 6.4882 29.667 6.23873 29.3582 6.114L25.9613 4.99142C25.529 4.80432 25.0349 5.24088 25.0349 5.67744V7.42369V7.98498V9.85596C23.2438 9.48176 21.1439 9.2323 18.9822 9.10756V6.98712H20.588C20.9586 6.98712 21.2674 6.6753 21.2674 6.3011V1.68602C21.2674 1.31183 20.9586 1 20.588 1L11.4472 1C11.0767 1 10.7679 1.31183 10.7679 1.68602V6.36347C10.7679 6.73766 11.0767 6.98712 11.4472 6.98712H13.0531V9.16993C10.1502 9.35703 7.37095 9.73122 5.27104 10.3549V8.60864L8.23562 7.61078C8.54443 7.48605 8.72972 7.23659 8.72972 6.92476C8.72972 6.61293 8.54443 6.3011 8.23562 6.17637L4.83871 5.05378C4.40638 4.86668 3.91228 5.30325 3.91228 5.73981V8.04734C3.91228 8.04734 3.91228 8.04734 3.91228 8.10971L3.91228 10.8538C3.35642 11.1033 2.86233 11.3527 2.49175 11.6022C1.00947 12.413 0.391846 13.5355 0.51537 14.6581C0.51537 14.7205 0.51537 14.7829 0.51537 14.7829L1.62709 24.7614C1.62709 25.7593 2.30647 26.6947 3.47995 27.4431C5.33281 28.6905 8.60619 29.5636 12.4354 29.8754C12.4972 29.8754 12.559 29.8754 12.559 29.9378C13.0531 29.9378 13.5472 30.0001 14.0413 30.0001C14.5971 30.0001 15.0912 30.0625 15.6471 30.0625C15.7706 30.0625 15.8941 30.0625 15.9559 30.0625C17.0676 30.0625 18.1793 30.0001 19.3528 29.9378H19.5381C19.6616 29.9378 19.7851 29.8754 19.8469 29.813C26.3319 29.1894 29.9141 27.5055 30.3464 24.9485L30.717 21.5184C30.8405 20.6453 29.42 20.3334 29.2965 21.3313L28.9259 24.7614C28.8024 25.7593 28.0612 26.1334 27.1966 26.6324L27.1348 26.6947L27.073 26.7571C25.529 27.6302 22.9967 28.2539 20.1557 28.5657V27.1313C20.1557 25.0109 18.0558 23.0152 15.9559 23.0152C13.856 23.0152 11.8796 25.0109 11.8796 27.1313V28.5657C9.10029 28.3163 6.69157 27.755 5.14752 26.9442C5.08576 26.8818 4.96224 26.8818 4.90047 26.8195C3.97404 26.3829 3.04761 25.884 2.92409 24.8238L2.12118 17.028C4.77695 18.7743 10.3355 19.7098 15.8941 19.7098C15.9559 19.7098 16.0176 19.7098 16.0176 19.7098C16.2029 19.7098 16.3264 19.7098 16.45 19.7098C21.885 19.6474 27.2583 18.7743 29.7288 16.9657C30.0376 17.527 31.0258 17.5893 31.1493 16.7786L31.3346 15.0323C31.8287 13.8474 31.2111 12.5377 29.5435 11.6022ZM16.0176 24.3872C18.4264 24.3872 18.9205 26.8195 18.7969 28.5657C17.0058 28.6905 15.153 28.6905 13.3619 28.5657C13.2383 26.8818 13.6089 24.3872 16.0176 24.3872ZM12.1884 5.61508V2.43442L19.9086 2.43442V5.61508H18.3028L13.7324 5.61508H12.1884ZM17.6234 6.98712V9.16993C16.5735 9.16993 15.4618 9.16993 14.4118 9.16993V6.98712L17.6234 6.98712ZM19.044 18.0883C17.0676 18.213 15.0294 18.213 13.0531 18.0883C11.2002 17.8388 9.59439 17.3399 8.66796 16.6538C10.7061 15.3442 12.806 15.2194 16.0794 15.0947C19.3528 15.2194 21.3909 15.3442 23.4908 16.6538C22.5026 17.4022 20.8351 17.8388 19.044 18.0883ZM30.0994 14.5334C29.667 15.2194 28.9877 15.7807 28.123 16.2173C27.9995 16.2796 27.8759 16.342 27.7524 16.4044C26.8878 16.8409 25.7143 17.1528 24.4173 17.4646C24.5408 17.2151 24.6643 16.9657 24.6643 16.6538C24.4173 12.7872 11.0767 13.2237 8.54443 14.97C7.74153 15.4065 7.30919 16.0302 7.30919 16.6538C7.37095 16.9657 7.43272 17.2151 7.618 17.4022C6.321 17.1528 5.20928 16.7786 4.34461 16.4044C4.0358 16.2796 3.72699 16.1549 3.47995 16.0302C2.80056 15.656 2.30647 15.1571 1.99766 14.5958C1.81237 13.8474 2.61528 13.0366 4.40638 12.2882C7.12391 11.1656 11.3855 10.4796 16.0794 10.4796C20.7733 10.4796 25.0349 11.1656 27.8142 12.2882C29.42 12.9742 30.2229 13.6603 30.2229 14.3463C30.1611 14.4087 30.0994 14.471 30.0994 14.5334Z"/>
</mask>
<path fill-rule="evenodd" clip-rule="evenodd" d="M29.5435 11.6022C28.8024 11.0409 27.7524 10.6043 26.3937 10.2302V8.48391L29.3582 7.48605C29.667 7.36132 29.8523 7.11186 29.8523 6.80003C29.8523 6.4882 29.667 6.23873 29.3582 6.114L25.9613 4.99142C25.529 4.80432 25.0349 5.24088 25.0349 5.67744V7.42369V7.98498V9.85596C23.2438 9.48176 21.1439 9.2323 18.9822 9.10756V6.98712H20.588C20.9586 6.98712 21.2674 6.6753 21.2674 6.3011V1.68602C21.2674 1.31183 20.9586 1 20.588 1L11.4472 1C11.0767 1 10.7679 1.31183 10.7679 1.68602V6.36347C10.7679 6.73766 11.0767 6.98712 11.4472 6.98712H13.0531V9.16993C10.1502 9.35703 7.37095 9.73122 5.27104 10.3549V8.60864L8.23562 7.61078C8.54443 7.48605 8.72972 7.23659 8.72972 6.92476C8.72972 6.61293 8.54443 6.3011 8.23562 6.17637L4.83871 5.05378C4.40638 4.86668 3.91228 5.30325 3.91228 5.73981V8.04734C3.91228 8.04734 3.91228 8.04734 3.91228 8.10971L3.91228 10.8538C3.35642 11.1033 2.86233 11.3527 2.49175 11.6022C1.00947 12.413 0.391846 13.5355 0.51537 14.6581C0.51537 14.7205 0.51537 14.7829 0.51537 14.7829L1.62709 24.7614C1.62709 25.7593 2.30647 26.6947 3.47995 27.4431C5.33281 28.6905 8.60619 29.5636 12.4354 29.8754C12.4972 29.8754 12.559 29.8754 12.559 29.9378C13.0531 29.9378 13.5472 30.0001 14.0413 30.0001C14.5971 30.0001 15.0912 30.0625 15.6471 30.0625C15.7706 30.0625 15.8941 30.0625 15.9559 30.0625C17.0676 30.0625 18.1793 30.0001 19.3528 29.9378H19.5381C19.6616 29.9378 19.7851 29.8754 19.8469 29.813C26.3319 29.1894 29.9141 27.5055 30.3464 24.9485L30.717 21.5184C30.8405 20.6453 29.42 20.3334 29.2965 21.3313L28.9259 24.7614C28.8024 25.7593 28.0612 26.1334 27.1966 26.6324L27.1348 26.6947L27.073 26.7571C25.529 27.6302 22.9967 28.2539 20.1557 28.5657V27.1313C20.1557 25.0109 18.0558 23.0152 15.9559 23.0152C13.856 23.0152 11.8796 25.0109 11.8796 27.1313V28.5657C9.10029 28.3163 6.69157 27.755 5.14752 26.9442C5.08576 26.8818 4.96224 26.8818 4.90047 26.8195C3.97404 26.3829 3.04761 25.884 2.92409 24.8238L2.12118 17.028C4.77695 18.7743 10.3355 19.7098 15.8941 19.7098C15.9559 19.7098 16.0176 19.7098 16.0176 19.7098C16.2029 19.7098 16.3264 19.7098 16.45 19.7098C21.885 19.6474 27.2583 18.7743 29.7288 16.9657C30.0376 17.527 31.0258 17.5893 31.1493 16.7786L31.3346 15.0323C31.8287 13.8474 31.2111 12.5377 29.5435 11.6022ZM16.0176 24.3872C18.4264 24.3872 18.9205 26.8195 18.7969 28.5657C17.0058 28.6905 15.153 28.6905 13.3619 28.5657C13.2383 26.8818 13.6089 24.3872 16.0176 24.3872ZM12.1884 5.61508V2.43442L19.9086 2.43442V5.61508H18.3028L13.7324 5.61508H12.1884ZM17.6234 6.98712V9.16993C16.5735 9.16993 15.4618 9.16993 14.4118 9.16993V6.98712L17.6234 6.98712ZM19.044 18.0883C17.0676 18.213 15.0294 18.213 13.0531 18.0883C11.2002 17.8388 9.59439 17.3399 8.66796 16.6538C10.7061 15.3442 12.806 15.2194 16.0794 15.0947C19.3528 15.2194 21.3909 15.3442 23.4908 16.6538C22.5026 17.4022 20.8351 17.8388 19.044 18.0883ZM30.0994 14.5334C29.667 15.2194 28.9877 15.7807 28.123 16.2173C27.9995 16.2796 27.8759 16.342 27.7524 16.4044C26.8878 16.8409 25.7143 17.1528 24.4173 17.4646C24.5408 17.2151 24.6643 16.9657 24.6643 16.6538C24.4173 12.7872 11.0767 13.2237 8.54443 14.97C7.74153 15.4065 7.30919 16.0302 7.30919 16.6538C7.37095 16.9657 7.43272 17.2151 7.618 17.4022C6.321 17.1528 5.20928 16.7786 4.34461 16.4044C4.0358 16.2796 3.72699 16.1549 3.47995 16.0302C2.80056 15.656 2.30647 15.1571 1.99766 14.5958C1.81237 13.8474 2.61528 13.0366 4.40638 12.2882C7.12391 11.1656 11.3855 10.4796 16.0794 10.4796C20.7733 10.4796 25.0349 11.1656 27.8142 12.2882C29.42 12.9742 30.2229 13.6603 30.2229 14.3463C30.1611 14.4087 30.0994 14.471 30.0994 14.5334Z" fill="#3744C4"/>
<path fill-rule="evenodd" clip-rule="evenodd" d="M29.5435 11.6022C28.8024 11.0409 27.7524 10.6043 26.3937 10.2302V8.48391L29.3582 7.48605C29.667 7.36132 29.8523 7.11186 29.8523 6.80003C29.8523 6.4882 29.667 6.23873 29.3582 6.114L25.9613 4.99142C25.529 4.80432 25.0349 5.24088 25.0349 5.67744V7.42369V7.98498V9.85596C23.2438 9.48176 21.1439 9.2323 18.9822 9.10756V6.98712H20.588C20.9586 6.98712 21.2674 6.6753 21.2674 6.3011V1.68602C21.2674 1.31183 20.9586 1 20.588 1L11.4472 1C11.0767 1 10.7679 1.31183 10.7679 1.68602V6.36347C10.7679 6.73766 11.0767 6.98712 11.4472 6.98712H13.0531V9.16993C10.1502 9.35703 7.37095 9.73122 5.27104 10.3549V8.60864L8.23562 7.61078C8.54443 7.48605 8.72972 7.23659 8.72972 6.92476C8.72972 6.61293 8.54443 6.3011 8.23562 6.17637L4.83871 5.05378C4.40638 4.86668 3.91228 5.30325 3.91228 5.73981V8.04734C3.91228 8.04734 3.91228 8.04734 3.91228 8.10971L3.91228 10.8538C3.35642 11.1033 2.86233 11.3527 2.49175 11.6022C1.00947 12.413 0.391846 13.5355 0.51537 14.6581C0.51537 14.7205 0.51537 14.7829 0.51537 14.7829L1.62709 24.7614C1.62709 25.7593 2.30647 26.6947 3.47995 27.4431C5.33281 28.6905 8.60619 29.5636 12.4354 29.8754C12.4972 29.8754 12.559 29.8754 12.559 29.9378C13.0531 29.9378 13.5472 30.0001 14.0413 30.0001C14.5971 30.0001 15.0912 30.0625 15.6471 30.0625C15.7706 30.0625 15.8941 30.0625 15.9559 30.0625C17.0676 30.0625 18.1793 30.0001 19.3528 29.9378H19.5381C19.6616 29.9378 19.7851 29.8754 19.8469 29.813C26.3319 29.1894 29.9141 27.5055 30.3464 24.9485L30.717 21.5184C30.8405 20.6453 29.42 20.3334 29.2965 21.3313L28.9259 24.7614C28.8024 25.7593 28.0612 26.1334 27.1966 26.6324L27.1348 26.6947L27.073 26.7571C25.529 27.6302 22.9967 28.2539 20.1557 28.5657V27.1313C20.1557 25.0109 18.0558 23.0152 15.9559 23.0152C13.856 23.0152 11.8796 25.0109 11.8796 27.1313V28.5657C9.10029 28.3163 6.69157 27.755 5.14752 26.9442C5.08576 26.8818 4.96224 26.8818 4.90047 26.8195C3.97404 26.3829 3.04761 25.884 2.92409 24.8238L2.12118 17.028C4.77695 18.7743 10.3355 19.7098 15.8941 19.7098C15.9559 19.7098 16.0176 19.7098 16.0176 19.7098C16.2029 19.7098 16.3264 19.7098 16.45 19.7098C21.885 19.6474 27.2583 18.7743 29.7288 16.9657C30.0376 17.527 31.0258 17.5893 31.1493 16.7786L31.3346 15.0323C31.8287 13.8474 31.2111 12.5377 29.5435 11.6022ZM16.0176 24.3872C18.4264 24.3872 18.9205 26.8195 18.7969 28.5657C17.0058 28.6905 15.153 28.6905 13.3619 28.5657C13.2383 26.8818 13.6089 24.3872 16.0176 24.3872ZM12.1884 5.61508V2.43442L19.9086 2.43442V5.61508H18.3028L13.7324 5.61508H12.1884ZM17.6234 6.98712V9.16993C16.5735 9.16993 15.4618 9.16993 14.4118 9.16993V6.98712L17.6234 6.98712ZM19.044 18.0883C17.0676 18.213 15.0294 18.213 13.0531 18.0883C11.2002 17.8388 9.59439 17.3399 8.66796 16.6538C10.7061 15.3442 12.806 15.2194 16.0794 15.0947C19.3528 15.2194 21.3909 15.3442 23.4908 16.6538C22.5026 17.4022 20.8351 17.8388 19.044 18.0883ZM30.0994 14.5334C29.667 15.2194 28.9877 15.7807 28.123 16.2173C27.9995 16.2796 27.8759 16.342 27.7524 16.4044C26.8878 16.8409 25.7143 17.1528 24.4173 17.4646C24.5408 17.2151 24.6643 16.9657 24.6643 16.6538C24.4173 12.7872 11.0767 13.2237 8.54443 14.97C7.74153 15.4065 7.30919 16.0302 7.30919 16.6538C7.37095 16.9657 7.43272 17.2151 7.618 17.4022C6.321 17.1528 5.20928 16.7786 4.34461 16.4044C4.0358 16.2796 3.72699 16.1549 3.47995 16.0302C2.80056 15.656 2.30647 15.1571 1.99766 14.5958C1.81237 13.8474 2.61528 13.0366 4.40638 12.2882C7.12391 11.1656 11.3855 10.4796 16.0794 10.4796C20.7733 10.4796 25.0349 11.1656 27.8142 12.2882C29.42 12.9742 30.2229 13.6603 30.2229 14.3463C30.1611 14.4087 30.0994 14.471 30.0994 14.5334Z" stroke="#3744C4" stroke-width="0.4" mask="url(#path-1-outside-1_4953_3365)"/>
</svg>
