<svg width="60" height="60" viewBox="0 0 60 60" fill="none" xmlns="http://www.w3.org/2000/svg">
<path d="M21.3265 9.29292L22.5858 9.28842C22.4656 9.06251 22.3453 8.8366 22.2251 8.61069C22.4302 8.66745 22.6353 8.72421 22.841 8.78097C22.841 8.54551 22.8404 8.31004 22.8398 8.07458C22.6218 8.12684 22.4043 8.17911 22.1863 8.23081C22.243 7.99029 22.2998 7.7492 22.3566 7.50868C22.107 7.50812 21.8575 7.50756 21.608 7.507C21.6625 7.7492 21.717 7.99141 21.7715 8.23362C21.5434 8.1836 21.3152 8.13303 21.0871 8.08301C21.0871 8.32241 21.0871 8.5618 21.0871 8.8012L21.7316 8.6579L21.3259 9.29292H21.3265Z" fill="#333333"/>
<path d="M37.4784 9.29292L38.7378 9.28842C38.6175 9.06251 38.4973 8.8366 38.377 8.61069C38.5821 8.66745 38.7872 8.72421 38.9929 8.78097C38.9929 8.54551 38.9924 8.31004 38.9918 8.07458C38.7738 8.12684 38.5563 8.17911 38.3382 8.23081C38.395 7.99029 38.4518 7.7492 38.5085 7.50868C38.259 7.50812 38.0095 7.50756 37.76 7.507C37.8145 7.7492 37.869 7.99141 37.9235 8.23362C37.6953 8.1836 37.4672 8.13303 37.239 8.08301C37.239 8.32241 37.239 8.5618 37.239 8.8012L37.8836 8.6579L37.4779 9.29292H37.4784Z" fill="#333333"/>
<path d="M20.1104 13.1969H23.7013C26.714 13.1969 28.0627 11.3587 28.4657 9.76553H31.5312C31.9341 11.3587 33.3002 13.1969 36.2955 13.1969H39.869C39.869 13.1969 40.4995 12.3567 40.6575 11.9364C41.2177 10.4309 40.4995 9.73069 39.4487 9.73069L38.0825 10.9563L36.7164 9.73069C35.6655 9.73069 34.9473 10.4309 35.5076 11.9364C35.5779 12.1291 35.7526 12.409 35.9105 12.654C34.6495 12.4793 33.0204 11.6211 32.6703 9.76553C32.6703 9.76553 33.6161 8.27745 33.8436 7.68233C34.6843 5.52889 33.6161 4.63593 32.0218 4.63593L29.9903 7.01697L27.9582 4.63593C26.3819 4.63593 25.2956 5.51147 26.1363 7.68233C26.3639 8.27745 27.3097 9.76553 27.3097 9.76553C26.9596 11.6211 25.3305 12.4793 24.0694 12.654C24.2273 12.409 24.4021 12.1286 24.4723 11.9364C25.0332 10.4309 24.3144 9.73069 23.2636 9.73069L21.8974 10.9563L20.5313 9.73069C19.4804 9.73069 18.7622 10.4309 19.3225 11.9364C19.4978 12.3567 20.1109 13.1969 20.1109 13.1969H20.1104Z" fill="#333333"/>
<path d="M29.0962 4.34652L30.8394 4.34033C30.6731 4.02788 30.5067 3.71487 30.3404 3.40242C30.6247 3.48109 30.9085 3.55977 31.1923 3.63844C31.1923 3.3125 31.1912 2.98656 31.1906 2.66062C30.8888 2.73256 30.5876 2.80505 30.2859 2.87698C30.3645 2.54374 30.4432 2.21049 30.5219 1.87725C30.1768 1.87669 29.8312 1.87556 29.4862 1.875C29.5615 2.21049 29.6374 2.54598 29.7127 2.88091C29.3968 2.81123 29.081 2.74211 28.7652 2.67243C28.7652 3.00398 28.7652 3.33498 28.7652 3.66654L29.6576 3.46817L29.0962 4.34708V4.34652Z" fill="#333333"/>
<path d="M14.1266 46.8669C14.6672 47.4744 15.5394 47.7037 16.3368 47.466L13.7557 45.0799C13.5416 45.6947 13.6793 46.3645 14.1272 46.8669H14.1266Z" fill="#333333"/>
<path d="M11.9479 14.4574C12.4559 14.0724 14.3126 13.0041 13.8574 15.0525C14.0502 15.0525 14.6981 14.6147 14.6981 14.037C14.6981 12.7765 12.9465 12.1988 12.9465 10.9732C12.9465 9.15243 15.8721 9.15243 15.7844 9.45027C15.2764 11.0609 16.2396 13.0918 19.0073 13.2317C19.0247 13.1969 19.0073 12.8468 19.0073 12.8468C16.6948 12.8468 15.6265 10.3606 17.4484 8.67982C16.4672 5.61599 14.9785 8.67982 13.7175 9.46769C13.0167 9.90546 11.0549 9.64246 10.8976 10.518C10.6874 11.7262 12.947 11.7082 11.9484 14.4574H11.9479Z" fill="#333333"/>
<path d="M13.4719 27.7804C13.577 28.008 13.6821 28.2182 13.7872 28.4283C10.5115 30.3019 5.92249 30.0912 5.23914 30.0563C5.18632 30.0563 5.15148 30.0912 5.15148 30.144C5.2043 32.4025 7.41113 33.0151 9.37295 32.7526C11.0369 32.525 13.3663 31.4219 15.0128 30.1789C15.1707 30.3536 15.3455 30.529 15.5382 30.7037C13.9619 33.2775 10.2659 34.3278 9.05712 34.4155C9.0043 34.4155 8.96946 34.4857 8.98688 34.5206C9.77475 35.8862 11.5618 36.3239 13.5062 35.3961C14.6621 34.8358 16.0985 33.4 17.0971 31.7546C17.3247 31.8597 17.5523 31.9648 17.7979 32.0345C17.1848 35.0983 14.1199 36.9713 13.5764 37.2866C13.5416 37.304 13.5236 37.3563 13.559 37.4091C14.47 38.4245 16.5717 38.442 17.8681 36.9713C18.6566 36.0609 19.2697 34.3801 19.6024 32.3317C19.9525 32.3317 20.4779 32.3846 21.0387 32.5593V32.5065C21.0387 31.5259 21.1967 30.5632 21.4939 29.6703C21.0208 29.6877 20.5656 29.6529 20.1981 29.5826C18.5167 29.2848 17.2376 27.9192 17.2376 26.2738C17.2376 25.3285 17.658 24.4704 18.3413 23.8579C18.4813 23.7354 18.4638 23.5078 18.3065 23.4027C18.2188 23.3499 18.1486 23.2976 18.0789 23.2628C12.176 19.5336 6.79859 10.885 6.22033 9.93974C6.18549 9.88748 6.13267 9.88748 6.09782 9.92232C4.29392 11.5155 4.10117 14.6142 6.01016 17.0654C7.2712 18.676 9.91637 20.4445 12.6312 21.9674C12.5964 22.2473 12.561 22.5451 12.561 22.825C6.97336 21.6348 3.43468 17.8005 2.85698 17.1525C2.82214 17.0997 2.75189 17.1177 2.71705 17.17C1.6836 19.1835 2.57712 21.8792 4.6266 22.9998C6.41309 23.9978 9.2156 24.5755 12.684 24.9779C12.7194 25.2229 12.7717 25.4679 12.824 25.7135C7.63929 26.4137 3.59315 24.5233 2.89238 24.1726C2.83956 24.1552 2.76988 24.1726 2.76988 24.2249C2.50688 26.3783 3.87357 28.094 6.20291 28.4795C8.53225 28.9347 13.4719 27.7793 13.4719 27.7793V27.7804Z" fill="#333333"/>
<path d="M5.21273 39.2456C5.78818 39.517 6.37375 39.562 6.96325 39.2754C7.06553 39.5103 7.2521 39.6328 7.48587 39.703C7.78034 39.7918 8.0484 39.7305 8.30634 39.5828C8.40581 39.526 8.48786 39.4923 8.60137 39.5996C10.3356 41.2422 12.0743 42.8792 13.8164 44.5134C13.8198 44.5168 13.8226 44.5196 13.8259 44.523L16.8718 47.3384C16.8976 47.3525 16.9235 47.3716 16.9516 47.398C17.3714 47.7958 17.7996 48.1842 18.2205 48.5815C18.4228 48.7725 18.66 48.8124 18.9095 48.7332C19.3579 48.5905 19.4759 48.0746 19.1348 47.7481C18.7487 47.3783 18.3542 47.0153 17.939 46.6315L14.8723 43.8132C14.851 43.7997 14.8296 43.784 14.8066 43.7626C13.7119 42.723 12.6104 41.6896 11.5095 40.6572C10.7706 39.9643 10.0288 39.2748 9.29034 38.5858C9.54435 37.9739 9.41566 37.5333 8.9082 37.2618C9.35553 36.0098 8.51258 34.7701 7.23636 34.5863C7.25997 34.9415 7.28357 35.2944 7.30886 35.6771C7.19422 35.6299 7.11947 35.599 7.04417 35.5681C6.58673 35.3826 6.11862 35.2641 5.61903 35.3219C5.11551 35.3804 4.81823 35.6827 4.7699 36.1834C4.71989 36.6993 4.89916 37.1562 5.1245 37.6018C5.15878 37.6704 5.19194 37.7389 5.23633 37.8294H4.10623C4.27425 38.4762 4.66875 38.9893 5.21386 39.2467L5.21273 39.2456Z" fill="#333333"/>
<path d="M39.2728 17.9061C38.9575 17.941 37.8712 18.4141 37.3986 18.9918C38.1168 18.7643 39.3604 18.7468 40.2186 19.5173C40.2186 18.712 39.5178 17.9944 39.2728 17.9067V17.9061Z" fill="#333333"/>
<path d="M32.214 26.2569C31.7234 26.3968 30.1993 26.8346 29.3064 26.852C29.0962 27.4471 30.8304 28.0777 30.7427 28.1299C30.6551 28.1822 28.6933 28.4626 28.3954 28.4098C28.0976 28.357 25.6806 28.4975 25.0152 28.357C24.7876 28.3041 24.0868 28.6548 24.3493 28.7773C24.4021 28.7947 24.8399 28.6897 25.0152 28.7773C25.2602 28.8824 25.2254 29.0572 25.3653 29.0398C25.5232 29.0398 25.5052 29.0049 25.5755 28.9172C25.6457 28.8296 25.7508 28.7773 25.7857 28.7425C25.8031 28.7251 25.8205 28.7251 25.8385 28.7251L30.4275 29.2151C30.4275 29.2151 30.6202 30.9133 29.4817 31.491C28.7635 31.876 27.9751 33.767 27.6952 34.397C27.6424 34.5195 27.5373 34.6245 27.3974 34.6768C27.2395 34.7296 27.0473 34.7993 26.9068 34.9044C26.6443 35.0797 25.3479 36.4627 25.208 36.7252C25.0506 36.9882 24.6651 36.9353 24.56 37.0927C24.315 37.4254 24.7179 37.7755 24.4375 38.0379C24.2976 38.1958 24.56 38.8432 24.6825 38.8432C24.8753 38.8432 24.9101 38.7909 25.068 38.3178C25.2254 37.8452 25.2608 37.3546 25.3833 37.1624C25.5058 36.9696 28.0981 35.4467 28.4662 35.0966C28.7641 34.8167 29.8852 33.6782 30.3055 33.241C30.4106 33.1359 30.5505 33.0662 30.7085 33.0662L32.2848 33.0134C32.2848 33.0134 31.6368 33.6259 31.2339 33.9238C30.9186 33.8187 30.7085 33.8361 30.6208 33.9064C30.4106 34.0289 30.6556 34.5015 30.3758 34.7993C30.2004 35.0269 30.1308 35.4821 30.183 35.5169C30.2533 35.5698 30.428 35.4473 30.4634 35.4293C30.7613 35.1668 31.462 34.4138 32.355 33.871C34.2117 32.7678 34.5444 32.4526 34.5618 32.2429C34.5793 31.9805 34.4219 31.7878 34.2117 31.7355C33.8791 31.6478 31.5492 31.5956 31.6194 31.5079C31.8296 31.35 32.6354 30.3699 32.7754 29.8973C32.8979 29.4595 32.5652 28.7419 32.5124 28.5317C32.4601 28.3216 32.6349 28.0243 32.6349 28.0243L33.3356 28.0591C33.3356 28.0591 33.511 27.4112 33.4233 27.3061C33.3182 27.1836 33.3008 26.8161 33.3008 26.8161V26.7812C33.1957 26.1861 32.7051 26.1159 32.2151 26.2558L32.214 26.2569Z" fill="#333333"/>
<path d="M26.206 38.4774C26.2762 38.7572 26.4864 38.9326 26.6089 38.8972C26.7843 38.8443 26.8888 38.4245 26.9416 38.1093C26.9765 37.8643 27.1692 37.4265 27.1692 37.4265L29.2535 36.166L29.7087 34.6954C29.7087 34.6954 27.1164 37.0061 26.7309 37.0764C26.2757 37.1466 26.3808 37.4793 26.3634 37.6889C26.3634 38.0216 26.0829 37.9165 26.2054 38.4768L26.206 38.4774Z" fill="#333333"/>
<path d="M41.1121 17.2582C42.0933 17.4161 42.4085 18.0809 42.4782 18.2737C42.8109 17.9938 43.1262 17.0132 43.0037 16.3652C42.4254 13.3362 35.3491 15.3498 31.7936 14.0544C31.7234 14.93 32.8973 16.3478 34.0004 16.8732C32.4938 18.1686 31.1103 20.5322 30.4269 23.4561C31.8284 23.5089 33.1418 23.859 34.2983 24.4716C33.9482 21.0402 37.2935 16.6979 41.1121 17.2582Z" fill="#333333"/>
<path d="M32.3713 35.9564C32.459 35.8339 33.0192 34.9758 33.2643 34.7662C33.5093 34.556 33.5273 34.4863 34.8057 33.8384C36.2247 33.1207 36.7327 32.543 36.7501 32.2975C36.785 31.9648 36.5051 31.7198 36.1544 31.6495C35.8043 31.5793 35.0159 31.5444 35.0159 31.5444C35.121 31.5444 35.4891 31.9294 35.5065 32.1749C35.5239 32.42 35.4363 32.5779 35.1738 32.8055C34.9108 33.0331 33.8779 33.663 33.2294 34.066C32.5815 34.4863 32.5815 34.3986 32.4236 34.4161C32.2657 34.4335 32.2308 34.6959 32.2657 34.9763C32.3185 35.2562 32.1077 35.4489 32.0729 35.6591C32.0201 35.8693 32.2831 36.0795 32.3707 35.957L32.3713 35.9564Z" fill="#333333"/>
<path d="M34.0353 28.5857L33.4222 28.5508C33.4222 28.5508 33.5975 29.4961 33.5098 29.9692C33.4396 30.3193 32.7394 31.1949 32.7394 31.1949L33.7728 31.2825C33.7728 31.2825 34.5613 30.2845 34.6838 30.0221C34.8237 29.7596 34.6141 28.5862 34.631 28.4289C34.6484 28.271 34.876 27.9911 34.876 27.9911L35.4717 28.026C35.4717 28.026 35.6296 27.3258 35.4717 27.1684C35.2789 26.9931 35.4891 26.6784 35.2615 26.3109C35.0339 25.9433 33.8251 26.1709 33.8251 26.1709C33.8779 26.1709 34.3505 27.0813 34.3331 27.5365C34.3157 27.904 34.0353 28.5868 34.0353 28.5868V28.5857Z" fill="#333333"/>
<path d="M22.6151 18.9918C22.1419 18.4141 21.0562 17.959 20.7409 17.8887C20.4959 17.9764 19.7951 18.694 19.7951 19.5167C20.6712 18.7637 21.9148 18.7811 22.6151 18.9913V18.9918Z" fill="#333333"/>
<path d="M28.2903 14.0544C24.7168 15.3498 17.6406 13.3368 17.0803 16.3652C16.9578 17.0132 17.273 17.9758 17.6057 18.2737C17.6585 18.0635 17.9738 17.3981 18.9718 17.2582C22.7904 16.6805 26.1532 21.1099 25.7682 24.5761C26.9242 23.9456 28.2555 23.5432 29.657 23.4729C28.9737 20.5316 27.5901 18.1854 26.0835 16.8727C27.2046 16.3472 28.3606 14.9294 28.2903 14.0539V14.0544Z" fill="#333333"/>
<path d="M44.2124 9.41486C44.1248 9.13501 47.0504 9.11702 47.0504 10.9378C47.0504 12.1634 45.2987 12.7411 45.2987 14.0016C45.2987 14.5967 45.9292 15.0171 46.1394 15.0171C45.6837 12.9861 47.5584 14.0539 48.049 14.422C47.0504 11.6908 49.2926 11.7082 49.0824 10.4478C48.9245 9.57221 46.9632 9.83521 46.2625 9.39744C45.0014 8.60957 43.5122 5.54575 42.5316 8.60957C44.3535 10.2904 43.3026 12.7765 40.9727 12.7765C40.9727 12.7765 40.9553 13.1441 40.9727 13.1615C43.7578 13.0564 44.721 11.0429 44.213 9.41486H44.2124Z" fill="#333333"/>
<path d="M44.7154 41.4704L45.36 41.3271L44.9542 41.9621L46.2136 41.9576C46.0933 41.7317 45.9731 41.5058 45.8528 41.2799C46.0579 41.3366 46.263 41.3934 46.4687 41.4502C46.4687 41.2147 46.4682 40.9792 46.4676 40.7438C46.2496 40.796 46.0321 40.8483 45.814 40.9C45.8708 40.6595 45.9276 40.4184 45.9843 40.1779C45.7348 40.1773 45.4853 40.1767 45.2358 40.1762C45.2903 40.4184 45.3448 40.6606 45.3993 40.9028C45.1711 40.8528 44.943 40.8022 44.7148 40.7522C44.7148 40.9916 44.7148 41.231 44.7148 41.4704H44.7154Z" fill="#333333"/>
<path d="M43.56 42.5926C43.0025 42.9854 42.5912 43.4918 42.3748 44.138C42.3653 44.1667 42.3546 44.1925 42.3433 44.2156C42.3276 44.2695 42.3119 44.3235 42.299 44.3808C42.2433 44.6275 42.0989 45.4137 42.4507 46.2347C42.5265 46.4117 42.617 46.5696 42.7103 46.7101C42.7457 46.7472 42.78 46.7854 42.8115 46.8253C44.0337 48.3674 46.1861 48.6832 47.75 47.4952C48.4918 46.9321 48.9582 46.1886 48.9627 45.2372C48.9683 44.1032 48.4525 43.2254 47.5286 42.5763C47.3982 42.4847 47.315 42.496 47.197 42.5904C46.6587 43.0231 46.1136 43.4468 45.5634 43.8801C45.4982 43.8323 45.4364 43.7907 45.378 43.7447C44.8935 43.3642 44.4046 42.9888 43.9292 42.5977C43.7898 42.483 43.6966 42.4954 43.56 42.5921V42.5926Z" fill="#333333"/>
<path d="M39.8752 40.9686C40.1494 40.0717 40.2292 39.1714 39.8561 38.2829C39.5251 37.4945 38.9283 36.9769 38.1472 36.6662C36.3438 39.8137 33.6751 41.5817 30.0425 41.5676C26.4016 41.5541 23.7401 39.7654 21.966 36.5948C21.9205 36.6105 21.8643 36.6268 21.8098 36.6482C20.3273 37.2349 19.5793 38.683 19.9002 40.3071C20.102 41.3265 20.5482 42.2335 21.1107 43.0928C21.4467 43.6058 21.4473 43.6418 20.864 43.8492C19.7659 44.2403 18.6302 44.4258 17.4635 44.3892C17.3354 44.3853 17.1882 44.3263 17.087 44.2459C16.6099 43.8672 16.0895 43.7132 15.5264 43.7643L18.1143 46.142C18.3301 46.0296 18.5408 45.9217 18.7566 45.8307C20.0778 45.2715 21.4664 45.0287 22.8949 44.9855C23.2591 44.9742 23.3889 44.7607 23.2731 44.4066C23.2057 44.2004 23.1405 43.9919 23.1 43.7795C22.9213 42.8382 23.4878 41.9846 24.4263 41.7991C25.0967 41.6665 25.6901 41.893 26.2223 42.2779C27.2895 43.0489 27.8509 44.1689 28.3274 45.3648C28.2448 45.3895 28.1813 45.4098 28.1172 45.4272C26.0211 46.0032 24.0621 46.863 22.3526 48.2302C21.6844 48.7647 21.1056 49.38 20.7561 50.1803C20.6336 50.4607 20.5965 50.7484 20.7016 51.0344C21.0157 51.8903 21.6704 52.3579 22.5195 52.5928C22.6505 52.6287 22.696 52.568 22.7314 52.4394C22.8303 52.0791 22.9208 51.7116 23.0702 51.3711C23.9649 49.3289 25.5097 47.9066 27.4434 46.8748C27.8402 46.6629 28.274 46.5202 28.7022 46.3404C28.7725 46.5213 28.8197 46.6433 28.845 46.7096C28.2381 47.126 27.6345 47.4828 27.0962 47.92C25.7699 48.9968 24.8118 50.3354 24.3757 52.01C24.3262 52.2011 24.3083 52.4135 24.3341 52.6079C24.4538 53.5127 25.5097 54.2416 26.2796 54.445C26.4111 54.4798 26.446 54.4135 26.4623 54.2933C26.5482 53.6779 26.6027 53.0547 26.7416 52.4506C27.1259 50.7782 27.7919 49.2328 28.9282 47.9189C28.9933 47.8436 29.0462 47.7576 29.1046 47.6762C29.1439 47.6975 29.1833 47.7194 29.2232 47.7408C29.1889 48.0397 29.2024 48.3533 29.113 48.6343C28.5938 50.2584 28.165 51.8993 28.0161 53.6049C27.9627 54.2174 28.0077 54.7861 28.4696 55.257C28.8759 55.6706 29.3479 55.9825 29.8689 56.2247C29.9341 56.2551 30.0352 56.259 30.1004 56.2315C30.65 55.996 31.1547 55.6875 31.5683 55.2486C31.8903 54.9075 32.0881 54.5091 32.0442 54.0286C31.9897 53.4318 31.9403 52.8322 31.8459 52.241C31.6408 50.9586 31.2828 49.7133 30.8742 48.482C30.7899 48.2286 30.8338 47.979 30.9096 47.657C31.1996 48.0341 31.4649 48.3415 31.6896 48.6764C32.822 50.3651 33.4081 52.2438 33.5851 54.2573C33.6031 54.4635 33.679 54.4798 33.8386 54.4265C34.4056 54.2371 34.8996 53.9325 35.2907 53.4773C35.6976 53.0047 35.8184 52.4781 35.6346 51.8645C35.0463 49.9032 33.8139 48.4432 32.142 47.3204C31.8391 47.117 31.5126 46.9478 31.1833 46.7545C31.2294 46.6298 31.2749 46.5078 31.3244 46.3746C31.4688 46.4174 31.5919 46.4483 31.7104 46.4898C32.9142 46.9102 33.9493 47.6076 34.8765 48.4663C36.0555 49.5576 36.9609 50.826 37.3065 52.4309C37.3447 52.6085 37.4458 52.622 37.5858 52.5821C38.223 52.4023 38.7428 52.0538 39.1143 51.5003C39.4279 51.0328 39.4689 50.5534 39.207 50.037C38.7811 49.1957 38.1269 48.5624 37.3913 48.006C36.0128 46.9641 34.4691 46.2415 32.836 45.6997C32.4635 45.5761 32.0836 45.4749 31.7026 45.362C31.9751 44.623 32.3033 43.934 32.7692 43.3192C33.2761 42.6499 33.8628 42.0779 34.7012 41.8418C35.6841 41.5654 36.6153 42.0234 36.8709 42.918C37.0165 43.4277 36.9406 43.9267 36.7484 44.4156C36.6197 44.7416 36.7715 44.9619 37.1165 44.9872C37.6026 45.0226 38.0915 45.0434 38.5737 45.1085C39.7246 45.2636 40.8395 45.5598 41.8662 46.1145C41.8696 46.1161 41.873 46.1184 41.8764 46.1201C41.651 45.4564 41.6836 44.8371 41.7853 44.3606C41.202 44.292 40.6164 44.2369 40.0415 44.1257C39.6055 44.0414 39.1817 43.8728 38.7664 43.7064C38.5254 43.6103 38.5265 43.5305 38.6709 43.3209C39.175 42.5887 39.6122 41.8222 39.8741 40.9669L39.8752 40.9686Z" fill="#333333"/>
<path d="M57.1219 24.226C56.4385 24.5761 52.375 26.4671 47.1903 25.7669C47.2431 25.5219 47.2954 25.2768 47.3302 25.0318C50.7807 24.6289 53.6012 24.0338 55.3876 23.0532C57.4197 21.9152 58.3127 19.2189 57.2972 17.2233C57.2624 17.1705 57.1921 17.1705 57.1573 17.2059C56.5964 17.8539 53.0409 21.6876 47.4533 22.8784C47.4359 22.5805 47.4184 22.3007 47.3656 22.0208C50.0805 20.4979 52.7256 18.7294 53.9867 17.1188C55.8962 14.6855 55.7209 11.5689 53.899 9.9757C53.8642 9.94086 53.7939 9.95828 53.7765 9.99313C53.1988 10.9383 47.8208 19.587 41.9179 23.3162C41.8651 23.351 41.778 23.4038 41.7078 23.4561C41.5324 23.5612 41.515 23.7713 41.6729 23.9113C42.3557 24.5238 42.7766 25.3819 42.7766 26.3272C42.7766 27.9726 41.4982 29.3382 39.8162 29.636C39.5009 29.6888 39.1334 29.7237 38.7305 29.7237C39.0283 30.6166 39.1862 31.5618 39.1862 32.5425C39.6588 32.42 40.0972 32.3677 40.4124 32.3677C40.7451 34.3986 41.3582 36.0969 42.1467 37.0073C43.4251 38.4779 45.5269 38.4605 46.4558 37.445C46.4906 37.4102 46.4732 37.3574 46.4384 37.3225C45.8955 37.0247 42.83 35.1517 42.2169 32.0704C42.4619 31.9828 42.6895 31.8951 42.9177 31.7906C43.8989 33.4186 45.3527 34.8718 46.5086 35.4321C48.453 36.3599 50.2395 35.9047 51.0279 34.5565C51.0628 34.5037 51.0279 34.4515 50.9577 34.4515C49.7489 34.3638 46.0534 33.2961 44.4766 30.7397C44.6519 30.5823 44.8272 30.407 45.002 30.2143C46.6486 31.4573 48.9779 32.5605 50.6419 32.7875C52.5863 33.0505 54.8111 32.4374 54.8633 30.1789C54.8633 30.126 54.8285 30.0912 54.7757 30.0912C54.0749 30.126 49.4859 30.3362 46.2282 28.4632C46.3333 28.253 46.4384 28.0254 46.5435 27.8152C46.5435 27.8152 51.4831 28.9706 53.8299 28.5857C56.1598 28.2007 57.5259 26.4851 57.2629 24.3316C57.2281 24.244 57.1578 24.2091 57.123 24.2265L57.1219 24.226Z" fill="#333333"/>
</svg>
