<svg width="136" height="70" viewBox="0 0 136 70" fill="none" xmlns="http://www.w3.org/2000/svg">
<g clip-path="url(#clip0_3492_45307)">
<path fill-rule="evenodd" clip-rule="evenodd" d="M135.652 26.0059H131.898C131.726 26.015 131.561 26.0789 131.428 26.1882L124.49 32.5224L117.552 26.1879C117.419 26.0787 117.254 26.0149 117.082 26.0059H113.33C113.065 26.0059 113.009 26.1518 113.204 26.3302L122.242 34.5754L113.098 42.9227C112.904 43.1007 112.96 43.2462 113.224 43.2462H116.965C117.137 43.2372 117.301 43.1734 117.434 43.0643L124.49 36.627L131.546 43.0643C131.679 43.1734 131.844 43.2372 132.016 43.2463H135.755C136.019 43.2463 136.076 43.1003 135.881 42.9219L126.739 34.5755L135.778 26.3292C135.973 26.1514 135.916 26.0059 135.652 26.0059Z" fill="#152544"/>
<path d="M16.7426 26.0098H0.232816C0.171069 26.0098 0.111851 26.0343 0.0681899 26.078C0.0245285 26.1216 0 26.1808 0 26.2426V43.0053C0 43.0671 0.0245285 43.1263 0.0681899 43.1699C0.111851 43.2136 0.171069 43.2381 0.232816 43.2381H3.49223C3.55398 43.2381 3.6132 43.2136 3.65686 43.1699C3.70052 43.1263 3.72505 43.0671 3.72505 43.0053V29.485C3.72505 29.4233 3.74958 29.364 3.79324 29.3204C3.8369 29.2767 3.89612 29.2522 3.95786 29.2522H16.7426C16.8043 29.2522 16.8635 29.2277 16.9072 29.184C16.9509 29.1403 16.9754 29.0811 16.9754 29.0194V26.2426C16.9754 26.1808 16.9509 26.1216 16.9072 26.078C16.8635 26.0343 16.8043 26.0098 16.7426 26.0098Z" fill="#152544"/>
<path d="M62.6136 29.2508C62.6753 29.2508 62.7345 29.2263 62.7782 29.1826C62.8219 29.1389 62.8464 29.0797 62.8464 29.018V26.2412C62.8464 26.1794 62.8219 26.1202 62.7782 26.0765C62.7345 26.0329 62.6753 26.0084 62.6136 26.0084L52.2021 26.002C49.9174 26.002 47.7264 26.9095 46.1109 28.525C44.4955 30.1405 43.5879 32.3315 43.5879 34.6161C43.5879 36.9008 44.4955 39.0918 46.1109 40.7073C47.7264 42.3227 49.9174 43.2303 52.2021 43.2303L62.6136 43.2218C62.6753 43.2218 62.7345 43.1973 62.7782 43.1536C62.8219 43.11 62.8464 43.0507 62.8464 42.989V40.2122C62.8464 40.1505 62.8219 40.0912 62.7782 40.0476C62.7345 40.0039 62.6753 39.9794 62.6136 39.9794L52.6674 39.9709C51.2569 39.9562 49.9093 39.3856 48.9171 38.383C47.9249 37.3805 47.3684 36.0269 47.3684 34.6164C47.3684 33.2059 47.9249 31.8524 48.9171 30.8498C49.9093 29.8473 51.2569 29.2767 52.6674 29.262L62.6136 29.2508Z" fill="#152544"/>
<path d="M106.116 36.3653C107.483 36.3638 108.794 35.82 109.761 34.8534C110.727 33.8868 111.271 32.5762 111.273 31.2091V31.1786C111.271 29.8115 110.727 28.5009 109.761 27.5342C108.794 26.5676 107.483 26.0238 106.116 26.0223L98.8974 26.002C96.6128 26.002 94.4217 26.9095 92.8062 28.525C91.1908 30.1405 90.2832 32.3315 90.2832 34.6161C90.2832 36.9008 91.1908 39.0918 92.8062 40.7073C94.4217 42.3227 96.6128 43.2303 98.8974 43.2303H109.895C109.956 43.2303 110.016 43.2058 110.059 43.1621C110.103 43.1185 110.127 43.0592 110.127 42.9975V40.2037C110.127 40.142 110.103 40.0827 110.059 40.0391C110.016 39.9954 109.956 39.9709 109.895 39.9709H99.3628C98.2901 39.9677 97.2429 39.6435 96.3561 39.04C95.4692 38.4365 94.7833 37.5815 94.3866 36.5848C94.3741 36.5606 94.3685 36.5334 94.3703 36.5062C94.372 36.4789 94.3812 36.4527 94.3968 36.4303C94.4123 36.4079 94.4336 36.3901 94.4585 36.3789C94.4834 36.3677 94.5108 36.3635 94.5379 36.3667C95.6257 36.3667 106.116 36.3653 106.116 36.3653ZM94.2986 32.8855C94.662 31.8306 95.3448 30.9149 96.2522 30.2656C97.1596 29.6163 98.2465 29.2655 99.3623 29.262H105.786C106.896 29.262 107.799 30.0685 107.799 31.1786V31.2091C107.799 32.3192 106.896 33.1066 105.786 33.1066H94.4594C94.432 33.109 94.4044 33.1044 94.3793 33.093C94.3542 33.0816 94.3325 33.0639 94.3163 33.0417C94.3001 33.0194 94.2899 32.9933 94.2868 32.9659C94.2837 32.9385 94.2878 32.9108 94.2986 32.8855Z" fill="#152544"/>
<path d="M38.0013 28.5266L35.697 30.6287C35.6747 30.649 35.6567 30.6736 35.6442 30.7011C35.6316 30.7285 35.6247 30.7582 35.6239 30.7884C35.6231 30.8185 35.6284 30.8485 35.6394 30.8766C35.6505 30.9047 35.6671 30.9302 35.6882 30.9517C36.4064 31.7114 36.886 32.6648 37.0679 33.6942C37.2498 34.7236 37.1259 35.7837 36.7117 36.7434C36.2974 37.7032 35.6108 38.5204 34.7369 39.094C33.8631 39.6676 32.8402 39.9725 31.7949 39.9709H27.2847C25.8742 39.9562 24.5266 39.3856 23.5344 38.383C22.5422 37.3805 21.9857 36.0269 21.9857 34.6164C21.9857 33.2059 22.5422 31.8524 23.5344 30.8498C24.5266 29.8473 25.8742 29.2767 27.2847 29.262H31.7949C31.9944 29.2619 32.1938 29.2731 32.392 29.2955C32.5373 29.3058 32.6811 29.2608 32.7947 29.1696L35.3737 26.8152C35.3958 26.8007 35.4131 26.78 35.4235 26.7558C35.4338 26.7315 35.4369 26.7047 35.4321 26.6787C35.4274 26.6528 35.4151 26.6288 35.3969 26.6097C35.3786 26.5907 35.3551 26.5774 35.3294 26.5717C34.3501 26.1946 33.3096 26.0014 32.2603 26.002H26.8193C24.5346 26.002 22.3436 26.9095 20.7281 28.525C19.1126 30.1405 18.2051 32.3315 18.2051 34.6161C18.2051 36.9008 19.1126 39.0918 20.7281 40.7073C22.3436 42.3227 24.5346 43.2303 26.8193 43.2303H32.2603C33.9644 43.2329 35.6308 42.7292 37.0482 41.7831C38.4656 40.8371 39.57 39.4913 40.2213 37.9167C40.8727 36.342 41.0416 34.6093 40.7067 32.9384C40.3718 31.2676 39.5481 29.7338 38.3401 28.5318C38.2948 28.4883 38.2346 28.4636 38.1717 28.4626C38.1089 28.4617 38.048 28.4845 38.0013 28.5266Z" fill="#152544"/>
<path d="M66.1684 29.2594H75.1213C75.183 29.2594 75.2422 29.2839 75.2859 29.3276C75.3296 29.3713 75.3541 29.4305 75.3541 29.4922V43.004C75.3541 43.0658 75.3786 43.125 75.4223 43.1687C75.466 43.2123 75.5252 43.2369 75.5869 43.2369H78.8463C78.9081 43.2369 78.9673 43.2123 79.011 43.1687C79.0546 43.125 79.0791 43.0658 79.0791 43.004V26.0043C79.0791 26.0019 78.9744 26 78.8463 26H66.1684C66.1066 26 66.0474 26.0245 66.0037 26.0682C65.9601 26.1119 65.9355 26.1711 65.9355 26.2328V29.0266C65.9355 29.0884 65.9601 29.1476 66.0037 29.1912C66.0474 29.2349 66.1066 29.2594 66.1684 29.2594Z" fill="#152544"/>
<path d="M88.2638 26H82.1527C82.0242 26 81.9199 26.1042 81.9199 26.2328V29.0266C81.9199 29.1552 82.0242 29.2594 82.1527 29.2594H88.2638C88.3924 29.2594 88.4966 29.1552 88.4966 29.0266V26.2328C88.4966 26.1042 88.3924 26 88.2638 26Z" fill="#152544"/>
</g>
<defs>
<clipPath id="clip0_3492_45307">
<rect width="136" height="18" fill="white" transform="translate(0 26)"/>
</clipPath>
</defs>
</svg>
