<svg xmlns="http://www.w3.org/2000/svg" width="136" height="25" fill="none"><path fill="#EE2F53" d="M78.6926 17.97h-3.7751c-.1263 0-.2181-.1225-.1836-.245.631-2.1481 1.2889-4.5797 1.7441-7.2753.4666-2.7877.7114-5.357.8146-7.6507a.1905.1905 0 0 1 .1913-.1838h11.219a.1914.1914 0 0 1 .1914.1915v14.972a.1913.1913 0 0 1-.1914.1913H85.027a.1913.1913 0 0 1-.1915-.1913V6.2147h-3.6901c-.1357 1.7065-.3644 3.5402-.7394 5.4755-.4359 2.267-.9523 4.3232-1.5337 6.1497-.0229.0766-.0995.1301-.1797.1301Z"/><path fill="#0066B3" d="M0 2.8067a.1915.1915 0 0 1 .1915-.1915h10.8384c.1354 0 .227.1395.1744.2655l-1.3422 3.217a.187.187 0 0 1-.1935.116.1899.1899 0 0 1-.0192.001H4.059v11.564a.1914.1914 0 0 1-.1915.1913H.1914A.1913.1913 0 0 1 0 17.7787V2.8067Z"/><path fill="#EE2F53" d="M108.934 2.8067a.191.191 0 0 1 .191-.1915h10.839c.135 0 .227.1395.174.2655l-1.342 3.217a.1875.1875 0 0 1-.193.116.2258.2258 0 0 1-.02.001h-5.59v11.564a.1916.1916 0 0 1-.192.1913h-3.676a.1908.1908 0 0 1-.191-.1913V2.8067ZM43.8671 2.6152c-.1328 0-.2251.1307-.1795.2541l5.5851 15.1033c-.7882 1.657-1.6637 3.4011-2.6652 5.3452-.0656.1272.0258.2811.1693.2811h3.9731a.1928.1928 0 0 0 .1713-.1056c2.9401-5.9827 5.1036-11.286 8.0614-20.625.0404-.1235-.051-.253-.181-.253h-3.6905a.1935.1935 0 0 0-.1847.1404c-1.1388 3.9926-2.1888 7.1176-3.4059 10.1294L47.7686 2.7394a.1911.1911 0 0 0-.1795-.1242h-3.722ZM91.3828 2.6152c-.1329 0-.2252.1307-.1796.2541l5.5851 15.1033c-.788 1.657-1.6637 3.4011-2.6652 5.3452-.0655.1272.0258.2811.1693.2811h3.9732a.193.193 0 0 0 .1713-.1056c2.9401-5.9827 5.1031-11.286 8.0611-20.625.041-.1235-.051-.253-.181-.253h-3.69a.1931.1931 0 0 0-.185.1404c-1.139 3.9926-2.189 7.1176-3.4059 10.1294L95.2842 2.7394a.191.191 0 0 0-.1794-.1242h-3.722ZM71.8943 14.3461a.2076.2076 0 0 0-.1064-.1136c-.0494-.0227-.1064-.0227-.1558-.0075-.8814.3254-2.5343.5901-3.6856.5901-2.5192 0-3.7199-.6772-3.7199-4.525 0-3.076.3686-4.5251 3.7199-4.5251.9499 0 1.8314.1362 2.9523.4616.0912.0265.19-.0151.2318-.0984.418-.7832.9232-1.7404 1.4932-2.9133a.196.196 0 0 0 .0039-.1665.207.207 0 0 0-.1255-.1135c-1.4742-.4691-3.2334-.7415-4.8179-.7415-5.2777 0-7.6296 2.4782-7.6296 8.0399 0 5.6413 2.3519 8.1573 7.6296 8.1573 1.3223 0 3.9289-.2761 5.1865-.7756.0988-.0416.152-.1551.114-.2535l-1.0905-3.0154Z"/><path fill="#0066B3" d="M41.0116 14.3461a.2083.2083 0 0 0-.1064-.1136c-.0495-.0227-.1064-.0227-.1559-.0075-.8815.3254-2.5343.5901-3.6856.5901-2.5192 0-3.7198-.6772-3.7198-4.525 0-3.076.3685-4.5251 3.7198-4.5251.9499 0 1.8314.1362 2.9523.4616.0912.0265.19-.0151.2318-.0984.4179-.7832.9233-1.7404 1.4932-2.9133a.196.196 0 0 0 .0039-.1665.2074.2074 0 0 0-.1254-.1135c-1.4743-.4691-3.2335-.7415-4.818-.7415-5.2777 0-7.6296 2.4782-7.6296 8.0399 0 5.6413 2.3519 8.1573 7.6296 8.1573 1.3222 0 3.9288-.2761 5.1865-.7756.0988-.0416.152-.1551.114-.2535l-1.0904-3.0154ZM19.282 2.1934c-5.1596 0-7.1687 2.2537-7.1687 8.0393 0 5.8736 2.0091 8.1579 7.1687 8.1579 5.201 0 7.2289-2.2843 7.2289-8.1579 0-5.7856-2.0279-8.0393-7.2289-8.0393Zm0 12.8262c-2.3507 0-3.083-.6505-3.083-4.7295 0-4.343.7999-4.7295 3.083-4.7295 2.3282 0 3.1432.3865 3.1432 4.7295 0 4.079-.7473 4.7295-3.1432 4.7295Z"/><path fill="#EE2F53" d="M135.352 2.6152h-3.673c-.108 0-.192.084-.192.191v11.5695c-.796.2215-1.592.3285-2.488.3285-2.227 0-2.873-.6266-2.958-3.24v-8.658c0-.107-.084-.191-.192-.191h-3.673a.19.19 0 0 0-.192.191v.023s0 8.7076.005 8.719c.088 4.9174 1.871 6.8431 6.276 6.8431 2.571 0 5.442-.6533 7.145-1.3028.08-.0268.129-.1033.129-.1873V2.8062c.005-.107-.08-.191-.187-.191Z"/></svg>