<svg width="32" height="21" fill="none" xmlns="http://www.w3.org/2000/svg"><path d="M31.455 15.014c0 2.995-2.492 5.447-5.527 5.447h-.724c-3.055 0-5.527-2.432-5.527-5.447V5.326h.462v9.688c0 2.753 2.271 4.985 5.065 4.985h.724c2.793 0 5.065-2.232 5.065-4.985V5.889c0-2.754-2.271-4.985-5.065-4.985H9.105V.462h16.823c3.055 0 5.527 2.432 5.527 5.447v9.105ZM20.561 5.326h.463v9.688c0 2.271 1.869 4.1 4.16 4.1h.724c2.29 0 4.16-1.849 4.16-4.1V5.889c0-2.271-1.87-4.1-4.16-4.1H9.085v-.462h16.823c2.552 0 4.622 2.05 4.622 4.542v9.125c0 2.512-2.07 4.542-4.622 4.542h-.724c-2.553 0-4.623-2.05-4.623-4.542V5.326Zm.905 0h.462v9.688c0 1.769 1.467 3.216 3.256 3.216h.724c1.808 0 3.256-1.447 3.256-3.216V5.889c0-1.769-1.468-3.216-3.256-3.216H9.085v-.442h16.823c2.05 0 3.738 1.648 3.738 3.658v9.125c0 2.01-1.668 3.658-3.738 3.658h-.724c-2.05 0-3.738-1.648-3.738-3.658V5.326h.02Zm.904 0h.462v9.688c0 1.286 1.066 2.332 2.352 2.332h.724a2.338 2.338 0 0 0 2.351-2.332V5.869c0-1.286-1.065-2.332-2.351-2.332H9.085v-.442h16.823c1.567 0 2.834 1.246 2.834 2.774v9.125c0 1.527-1.267 2.773-2.834 2.773h-.724c-1.568 0-2.834-1.246-2.834-2.773V5.326h.02Zm-7.256 15.155h-.442V3.98h.442v16.5Zm-.864 0h-.442V3.98h.442v16.5Zm-.884 0h-.442V3.98h.442v16.5Zm-.884 0h-.443V3.98h.443v16.5ZM25.907 0H8.663v3.98h2.954v16.943h3.94V3.98h10.35c1.066 0 1.93.844 1.93 1.889v9.145c0 1.045-.864 1.89-1.93 1.89h-.723c-1.065 0-1.93-.845-1.93-1.89V4.884h-4.02v10.13c0 3.236 2.674 5.889 5.97 5.889h.724c3.296 0 5.97-2.633 5.97-5.889V5.889c0-3.256-2.694-5.889-5.99-5.889ZM3.075 20.46V3.096h4.261v.442H3.517v16.924h-.442ZM.442.443h6.894v.442H.884v19.577H.442V.442ZM7.336 1.77H1.75V20.46h-.443V1.327h6.03v.442Zm0 .884H2.633v17.808h-.442V2.21h5.145v.442Zm.442 1.327V0H0v20.903h3.94V3.98h3.838Z" fill="#3744C4"/></svg>
